G04 #@! TF.FileFunction,Soldermask,Bot*
%FSLAX46Y46*%
G04 Gerber Fmt 4.6, Leading zero omitted, Abs format (unit mm)*
G04 Created by KiCad (PCBNEW 4.0.7-e2-6376~61~ubuntu18.04.1) date Thu Feb 13 23:54:19 2020*
%MOMM*%
%LPD*%
G01*
G04 APERTURE LIST*
%ADD10C,0.100000*%
%ADD11R,1.300000X1.300000*%
%ADD12C,1.300000*%
%ADD13R,2.032000X1.727200*%
%ADD14O,2.032000X1.727200*%
%ADD15C,2.200000*%
%ADD16R,2.400000X1.600000*%
%ADD17O,2.400000X1.600000*%
%ADD18R,1.700000X1.700000*%
%ADD19O,1.700000X1.700000*%
G04 APERTURE END LIST*
D10*
D11*
X124460000Y-143510000D03*
D12*
X124460000Y-141010000D03*
D11*
X130810000Y-143510000D03*
D12*
X130810000Y-141010000D03*
D11*
X132080000Y-100330000D03*
D12*
X132080000Y-97830000D03*
D11*
X125730000Y-97790000D03*
D12*
X125730000Y-100290000D03*
D11*
X132080000Y-107950000D03*
D12*
X132080000Y-105450000D03*
D11*
X125730000Y-105410000D03*
D12*
X125730000Y-107910000D03*
D13*
X119380000Y-97790000D03*
D14*
X119380000Y-100330000D03*
X119380000Y-102870000D03*
X119380000Y-105410000D03*
X119380000Y-107950000D03*
X119380000Y-110490000D03*
X119380000Y-113030000D03*
X119380000Y-115570000D03*
X119380000Y-118110000D03*
X119380000Y-120650000D03*
X119380000Y-123190000D03*
X119380000Y-125730000D03*
X119380000Y-128270000D03*
X119380000Y-130810000D03*
X119380000Y-133350000D03*
X119380000Y-135890000D03*
X119380000Y-138430000D03*
X119380000Y-140970000D03*
X119380000Y-143510000D03*
D15*
X128270000Y-116840000D03*
X128270000Y-119380000D03*
X128270000Y-121920000D03*
X128270000Y-124460000D03*
X128270000Y-127000000D03*
X128270000Y-129540000D03*
X128270000Y-132080000D03*
X128270000Y-134620000D03*
X128270000Y-137160000D03*
D13*
X147320000Y-100330000D03*
D14*
X147320000Y-102870000D03*
X147320000Y-105410000D03*
X147320000Y-107950000D03*
X147320000Y-110490000D03*
X147320000Y-113030000D03*
X147320000Y-115570000D03*
X147320000Y-118110000D03*
X147320000Y-120650000D03*
X147320000Y-123190000D03*
X147320000Y-125730000D03*
X147320000Y-128270000D03*
X147320000Y-130810000D03*
X147320000Y-133350000D03*
X147320000Y-135890000D03*
D13*
X162560000Y-100330000D03*
D14*
X162560000Y-102870000D03*
X162560000Y-105410000D03*
X162560000Y-107950000D03*
X162560000Y-110490000D03*
X162560000Y-113030000D03*
X162560000Y-115570000D03*
X162560000Y-118110000D03*
X162560000Y-120650000D03*
X162560000Y-123190000D03*
X162560000Y-125730000D03*
X162560000Y-128270000D03*
X162560000Y-130810000D03*
X162560000Y-133350000D03*
X162560000Y-135890000D03*
D16*
X171450000Y-123190000D03*
D17*
X179070000Y-140970000D03*
X171450000Y-125730000D03*
X179070000Y-138430000D03*
X171450000Y-128270000D03*
X179070000Y-135890000D03*
X171450000Y-130810000D03*
X179070000Y-133350000D03*
X171450000Y-133350000D03*
X179070000Y-130810000D03*
X171450000Y-135890000D03*
X179070000Y-128270000D03*
X171450000Y-138430000D03*
X179070000Y-125730000D03*
X171450000Y-140970000D03*
X179070000Y-123190000D03*
D18*
X187960000Y-123190000D03*
D19*
X187960000Y-125730000D03*
X187960000Y-128270000D03*
X187960000Y-130810000D03*
X187960000Y-133350000D03*
M02*
