M48
;DRILL file {KiCad 4.0.7-e2-6376~61~ubuntu18.04.1} date Thu Feb 13 23:54:21 2020
;FORMAT={3:3/ absolute / metric / suppress leading zeros}
FMAT,2
METRIC,TZ
T1C0.400
T2C0.800
T3C0.800
T4C1.000
T5C1.016
%
G90
G05
M71
T1
X129540Y-111760
X132080Y-124460
X132080Y-130810
X132080Y-135890
X133350Y-119380
X138510Y-115570
X139700Y-124460
X139700Y-130810
X141986Y-134366
X143764Y-122174
T2
X124460Y-143510
X125730Y-97790
X125730Y-105410
X130810Y-141010
X130810Y-143510
X132080Y-97830
X132080Y-100330
X132080Y-105450
X132080Y-107950
X171450Y-123190
X171450Y-125730
X171450Y-128270
X171450Y-130810
X171450Y-133350
X171450Y-135890
X171450Y-138430
X171450Y-140970
X179070Y-123190
X179070Y-125730
X179070Y-128270
X179070Y-130810
X179070Y-133350
X179070Y-135890
X179070Y-138430
X179070Y-140970
T3
X124460Y-141010
X125730Y-100290
X125730Y-107910
T4
X187960Y-123190
X187960Y-125730
X187960Y-128270
X187960Y-130810
X187960Y-133350
T5
X119380Y-97790
X119380Y-100330
X119380Y-102870
X119380Y-105410
X119380Y-107950
X119380Y-110490
X119380Y-113030
X119380Y-115570
X119380Y-118110
X119380Y-120650
X119380Y-123190
X119380Y-125730
X119380Y-128270
X119380Y-130810
X119380Y-133350
X119380Y-135890
X119380Y-138430
X119380Y-140970
X119380Y-143510
X128270Y-116840
X128270Y-119380
X128270Y-121920
X128270Y-124460
X128270Y-127000
X128270Y-129540
X128270Y-132080
X128270Y-134620
X128270Y-137160
X147320Y-100330
X147320Y-102870
X147320Y-105410
X147320Y-107950
X147320Y-110490
X147320Y-113030
X147320Y-115570
X147320Y-118110
X147320Y-120650
X147320Y-123190
X147320Y-125730
X147320Y-128270
X147320Y-130810
X147320Y-133350
X147320Y-135890
X162560Y-100330
X162560Y-102870
X162560Y-105410
X162560Y-107950
X162560Y-110490
X162560Y-113030
X162560Y-115570
X162560Y-118110
X162560Y-120650
X162560Y-123190
X162560Y-125730
X162560Y-128270
X162560Y-130810
X162560Y-133350
X162560Y-135890
T0
M30
