G04 #@! TF.FileFunction,Copper,L2,Bot,Signal*
%FSLAX46Y46*%
G04 Gerber Fmt 4.6, Leading zero omitted, Abs format (unit mm)*
G04 Created by KiCad (PCBNEW 4.0.7-e2-6376~61~ubuntu18.04.1) date Thu Feb 13 23:54:19 2020*
%MOMM*%
%LPD*%
G01*
G04 APERTURE LIST*
%ADD10C,0.100000*%
%ADD11R,1.300000X1.300000*%
%ADD12C,1.300000*%
%ADD13R,2.032000X1.727200*%
%ADD14O,2.032000X1.727200*%
%ADD15C,2.200000*%
%ADD16R,2.400000X1.600000*%
%ADD17O,2.400000X1.600000*%
%ADD18R,1.700000X1.700000*%
%ADD19O,1.700000X1.700000*%
%ADD20C,0.600000*%
%ADD21C,0.250000*%
%ADD22C,0.254000*%
G04 APERTURE END LIST*
D10*
D11*
X124460000Y-143510000D03*
D12*
X124460000Y-141010000D03*
D11*
X130810000Y-143510000D03*
D12*
X130810000Y-141010000D03*
D11*
X132080000Y-100330000D03*
D12*
X132080000Y-97830000D03*
D11*
X125730000Y-97790000D03*
D12*
X125730000Y-100290000D03*
D11*
X132080000Y-107950000D03*
D12*
X132080000Y-105450000D03*
D11*
X125730000Y-105410000D03*
D12*
X125730000Y-107910000D03*
D13*
X119380000Y-97790000D03*
D14*
X119380000Y-100330000D03*
X119380000Y-102870000D03*
X119380000Y-105410000D03*
X119380000Y-107950000D03*
X119380000Y-110490000D03*
X119380000Y-113030000D03*
X119380000Y-115570000D03*
X119380000Y-118110000D03*
X119380000Y-120650000D03*
X119380000Y-123190000D03*
X119380000Y-125730000D03*
X119380000Y-128270000D03*
X119380000Y-130810000D03*
X119380000Y-133350000D03*
X119380000Y-135890000D03*
X119380000Y-138430000D03*
X119380000Y-140970000D03*
X119380000Y-143510000D03*
D15*
X128270000Y-116840000D03*
X128270000Y-119380000D03*
X128270000Y-121920000D03*
X128270000Y-124460000D03*
X128270000Y-127000000D03*
X128270000Y-129540000D03*
X128270000Y-132080000D03*
X128270000Y-134620000D03*
X128270000Y-137160000D03*
D13*
X147320000Y-100330000D03*
D14*
X147320000Y-102870000D03*
X147320000Y-105410000D03*
X147320000Y-107950000D03*
X147320000Y-110490000D03*
X147320000Y-113030000D03*
X147320000Y-115570000D03*
X147320000Y-118110000D03*
X147320000Y-120650000D03*
X147320000Y-123190000D03*
X147320000Y-125730000D03*
X147320000Y-128270000D03*
X147320000Y-130810000D03*
X147320000Y-133350000D03*
X147320000Y-135890000D03*
D13*
X162560000Y-100330000D03*
D14*
X162560000Y-102870000D03*
X162560000Y-105410000D03*
X162560000Y-107950000D03*
X162560000Y-110490000D03*
X162560000Y-113030000D03*
X162560000Y-115570000D03*
X162560000Y-118110000D03*
X162560000Y-120650000D03*
X162560000Y-123190000D03*
X162560000Y-125730000D03*
X162560000Y-128270000D03*
X162560000Y-130810000D03*
X162560000Y-133350000D03*
X162560000Y-135890000D03*
D16*
X171450000Y-123190000D03*
D17*
X179070000Y-140970000D03*
X171450000Y-125730000D03*
X179070000Y-138430000D03*
X171450000Y-128270000D03*
X179070000Y-135890000D03*
X171450000Y-130810000D03*
X179070000Y-133350000D03*
X171450000Y-133350000D03*
X179070000Y-130810000D03*
X171450000Y-135890000D03*
X179070000Y-128270000D03*
X171450000Y-138430000D03*
X179070000Y-125730000D03*
X171450000Y-140970000D03*
X179070000Y-123190000D03*
D18*
X187960000Y-123190000D03*
D19*
X187960000Y-125730000D03*
X187960000Y-128270000D03*
X187960000Y-130810000D03*
X187960000Y-133350000D03*
D20*
X133350000Y-119380000D03*
X132080000Y-124460000D03*
X132080000Y-130810000D03*
X132080000Y-135890000D03*
X139700000Y-124460000D03*
X139700000Y-130810000D03*
X129540000Y-111760000D03*
X141986000Y-134366000D03*
X143764000Y-122174000D03*
X138510000Y-115570000D03*
D21*
X130810000Y-143510000D02*
X132080000Y-143510000D01*
X133350000Y-142240000D02*
X133350000Y-119380000D01*
X132080000Y-143510000D02*
X133350000Y-142240000D01*
X132080000Y-130810000D02*
X132080000Y-124460000D01*
X130810000Y-119380000D02*
X132080000Y-120650000D01*
X132080000Y-120650000D02*
X132080000Y-124460000D01*
X132080000Y-135890000D02*
X132080000Y-130810000D01*
X139700000Y-130810000D02*
X139700000Y-124460000D01*
X132080000Y-118110000D02*
X133350000Y-118110000D01*
X133350000Y-118110000D02*
X139700000Y-124460000D01*
X132080000Y-118110000D02*
X130810000Y-119380000D01*
X128270000Y-119380000D02*
X130810000Y-119380000D01*
X129540000Y-119380000D02*
X128270000Y-119380000D01*
X179070000Y-140970000D02*
X180340000Y-140970000D01*
X180340000Y-140970000D02*
X187960000Y-133350000D01*
X132080000Y-107950000D02*
X134620000Y-107950000D01*
X175260000Y-137160000D02*
X179070000Y-140970000D01*
X175260000Y-107950000D02*
X175260000Y-137160000D01*
X163830000Y-96520000D02*
X175260000Y-107950000D01*
X146050000Y-96520000D02*
X163830000Y-96520000D01*
X134620000Y-107950000D02*
X146050000Y-96520000D01*
X119380000Y-118110000D02*
X121920000Y-118110000D01*
X138430000Y-118110000D02*
X147320000Y-118110000D01*
X130810000Y-110490000D02*
X138430000Y-118110000D01*
X127000000Y-110490000D02*
X130810000Y-110490000D01*
X123190000Y-114300000D02*
X127000000Y-110490000D01*
X123190000Y-116840000D02*
X123190000Y-114300000D01*
X121920000Y-118110000D02*
X123190000Y-116840000D01*
X119380000Y-120650000D02*
X121920000Y-120650000D01*
X138430000Y-120650000D02*
X147320000Y-120650000D01*
X130810000Y-113030000D02*
X138430000Y-120650000D01*
X127000000Y-113030000D02*
X130810000Y-113030000D01*
X124460000Y-115570000D02*
X127000000Y-113030000D01*
X124460000Y-118110000D02*
X124460000Y-115570000D01*
X121920000Y-120650000D02*
X124460000Y-118110000D01*
X141986000Y-134366000D02*
X141986000Y-123952000D01*
X141986000Y-123952000D02*
X142240000Y-123698000D01*
X142240000Y-123698000D02*
X142297998Y-123640002D01*
X142297998Y-123640002D02*
X143764000Y-122174000D01*
X138510000Y-115570000D02*
X147320000Y-115570000D01*
D22*
G36*
X191085000Y-145365000D02*
X117525000Y-145365000D01*
X117525000Y-100330000D01*
X117696655Y-100330000D01*
X117810729Y-100903489D01*
X118135585Y-101389670D01*
X118450366Y-101600000D01*
X118135585Y-101810330D01*
X117810729Y-102296511D01*
X117696655Y-102870000D01*
X117810729Y-103443489D01*
X118135585Y-103929670D01*
X118450366Y-104140000D01*
X118135585Y-104350330D01*
X117810729Y-104836511D01*
X117696655Y-105410000D01*
X117810729Y-105983489D01*
X118135585Y-106469670D01*
X118450366Y-106680000D01*
X118135585Y-106890330D01*
X117810729Y-107376511D01*
X117696655Y-107950000D01*
X117810729Y-108523489D01*
X118135585Y-109009670D01*
X118450366Y-109220000D01*
X118135585Y-109430330D01*
X117810729Y-109916511D01*
X117696655Y-110490000D01*
X117810729Y-111063489D01*
X118135585Y-111549670D01*
X118450366Y-111760000D01*
X118135585Y-111970330D01*
X117810729Y-112456511D01*
X117696655Y-113030000D01*
X117810729Y-113603489D01*
X118135585Y-114089670D01*
X118450366Y-114300000D01*
X118135585Y-114510330D01*
X117810729Y-114996511D01*
X117696655Y-115570000D01*
X117810729Y-116143489D01*
X118135585Y-116629670D01*
X118450366Y-116840000D01*
X118135585Y-117050330D01*
X117810729Y-117536511D01*
X117696655Y-118110000D01*
X117810729Y-118683489D01*
X118135585Y-119169670D01*
X118450366Y-119380000D01*
X118135585Y-119590330D01*
X117810729Y-120076511D01*
X117696655Y-120650000D01*
X117810729Y-121223489D01*
X118135585Y-121709670D01*
X118450366Y-121920000D01*
X118135585Y-122130330D01*
X117810729Y-122616511D01*
X117696655Y-123190000D01*
X117810729Y-123763489D01*
X118135585Y-124249670D01*
X118450366Y-124460000D01*
X118135585Y-124670330D01*
X117810729Y-125156511D01*
X117696655Y-125730000D01*
X117810729Y-126303489D01*
X118135585Y-126789670D01*
X118450366Y-127000000D01*
X118135585Y-127210330D01*
X117810729Y-127696511D01*
X117696655Y-128270000D01*
X117810729Y-128843489D01*
X118135585Y-129329670D01*
X118450366Y-129540000D01*
X118135585Y-129750330D01*
X117810729Y-130236511D01*
X117696655Y-130810000D01*
X117810729Y-131383489D01*
X118135585Y-131869670D01*
X118450366Y-132080000D01*
X118135585Y-132290330D01*
X117810729Y-132776511D01*
X117696655Y-133350000D01*
X117810729Y-133923489D01*
X118135585Y-134409670D01*
X118450366Y-134620000D01*
X118135585Y-134830330D01*
X117810729Y-135316511D01*
X117696655Y-135890000D01*
X117810729Y-136463489D01*
X118135585Y-136949670D01*
X118450366Y-137160000D01*
X118135585Y-137370330D01*
X117810729Y-137856511D01*
X117696655Y-138430000D01*
X117810729Y-139003489D01*
X118135585Y-139489670D01*
X118450366Y-139700000D01*
X118135585Y-139910330D01*
X117810729Y-140396511D01*
X117696655Y-140970000D01*
X117810729Y-141543489D01*
X118135585Y-142029670D01*
X118450366Y-142240000D01*
X118135585Y-142450330D01*
X117810729Y-142936511D01*
X117696655Y-143510000D01*
X117810729Y-144083489D01*
X118135585Y-144569670D01*
X118621766Y-144894526D01*
X119195255Y-145008600D01*
X119564745Y-145008600D01*
X120138234Y-144894526D01*
X120624415Y-144569670D01*
X120949271Y-144083489D01*
X121063345Y-143510000D01*
X120949271Y-142936511D01*
X120898148Y-142860000D01*
X123162560Y-142860000D01*
X123162560Y-144160000D01*
X123206838Y-144395317D01*
X123345910Y-144611441D01*
X123558110Y-144756431D01*
X123810000Y-144807440D01*
X125110000Y-144807440D01*
X125345317Y-144763162D01*
X125561441Y-144624090D01*
X125706431Y-144411890D01*
X125757440Y-144160000D01*
X125757440Y-142860000D01*
X129512560Y-142860000D01*
X129512560Y-144160000D01*
X129556838Y-144395317D01*
X129695910Y-144611441D01*
X129908110Y-144756431D01*
X130160000Y-144807440D01*
X131460000Y-144807440D01*
X131695317Y-144763162D01*
X131911441Y-144624090D01*
X132056431Y-144411890D01*
X132085381Y-144268930D01*
X132370839Y-144212148D01*
X132617401Y-144047401D01*
X133887401Y-142777401D01*
X134052148Y-142530840D01*
X134110000Y-142240000D01*
X134110000Y-141319039D01*
X169658096Y-141319039D01*
X169675633Y-141401819D01*
X169945500Y-141894896D01*
X170383517Y-142247166D01*
X170923000Y-142405000D01*
X171323000Y-142405000D01*
X171323000Y-141097000D01*
X171577000Y-141097000D01*
X171577000Y-142405000D01*
X171977000Y-142405000D01*
X172516483Y-142247166D01*
X172954500Y-141894896D01*
X173224367Y-141401819D01*
X173241904Y-141319039D01*
X173119915Y-141097000D01*
X171577000Y-141097000D01*
X171323000Y-141097000D01*
X169780085Y-141097000D01*
X169658096Y-141319039D01*
X134110000Y-141319039D01*
X134110000Y-119942463D01*
X134142192Y-119910327D01*
X134284838Y-119566799D01*
X134285162Y-119194833D01*
X134143117Y-118851057D01*
X133880327Y-118587808D01*
X133536799Y-118445162D01*
X133164833Y-118444838D01*
X132821057Y-118586883D01*
X132557808Y-118849673D01*
X132415162Y-119193201D01*
X132414838Y-119565167D01*
X132556883Y-119908943D01*
X132590000Y-119942118D01*
X132590000Y-141925198D01*
X131995564Y-142519634D01*
X131924090Y-142408559D01*
X131711890Y-142263569D01*
X131460000Y-142212560D01*
X131297615Y-142212560D01*
X131473729Y-142139611D01*
X131529410Y-141909016D01*
X130810000Y-141189605D01*
X130090590Y-141909016D01*
X130146271Y-142139611D01*
X130355902Y-142212560D01*
X130160000Y-142212560D01*
X129924683Y-142256838D01*
X129708559Y-142395910D01*
X129563569Y-142608110D01*
X129512560Y-142860000D01*
X125757440Y-142860000D01*
X125713162Y-142624683D01*
X125574090Y-142408559D01*
X125361890Y-142263569D01*
X125110000Y-142212560D01*
X124947615Y-142212560D01*
X125123729Y-142139611D01*
X125179410Y-141909016D01*
X124460000Y-141189605D01*
X123740590Y-141909016D01*
X123796271Y-142139611D01*
X124005902Y-142212560D01*
X123810000Y-142212560D01*
X123574683Y-142256838D01*
X123358559Y-142395910D01*
X123213569Y-142608110D01*
X123162560Y-142860000D01*
X120898148Y-142860000D01*
X120624415Y-142450330D01*
X120309634Y-142240000D01*
X120624415Y-142029670D01*
X120949271Y-141543489D01*
X121063345Y-140970000D01*
X121035314Y-140829078D01*
X123162378Y-140829078D01*
X123191917Y-141339428D01*
X123330389Y-141673729D01*
X123560984Y-141729410D01*
X124280395Y-141010000D01*
X124639605Y-141010000D01*
X125359016Y-141729410D01*
X125589611Y-141673729D01*
X125757622Y-141190922D01*
X125736679Y-140829078D01*
X129512378Y-140829078D01*
X129541917Y-141339428D01*
X129680389Y-141673729D01*
X129910984Y-141729410D01*
X130630395Y-141010000D01*
X130989605Y-141010000D01*
X131709016Y-141729410D01*
X131939611Y-141673729D01*
X132107622Y-141190922D01*
X132078083Y-140680572D01*
X131939611Y-140346271D01*
X131709016Y-140290590D01*
X130989605Y-141010000D01*
X130630395Y-141010000D01*
X129910984Y-140290590D01*
X129680389Y-140346271D01*
X129512378Y-140829078D01*
X125736679Y-140829078D01*
X125728083Y-140680572D01*
X125589611Y-140346271D01*
X125359016Y-140290590D01*
X124639605Y-141010000D01*
X124280395Y-141010000D01*
X123560984Y-140290590D01*
X123330389Y-140346271D01*
X123162378Y-140829078D01*
X121035314Y-140829078D01*
X120949271Y-140396511D01*
X120758488Y-140110984D01*
X123740590Y-140110984D01*
X124460000Y-140830395D01*
X125179410Y-140110984D01*
X130090590Y-140110984D01*
X130810000Y-140830395D01*
X131529410Y-140110984D01*
X131473729Y-139880389D01*
X130990922Y-139712378D01*
X130480572Y-139741917D01*
X130146271Y-139880389D01*
X130090590Y-140110984D01*
X125179410Y-140110984D01*
X125123729Y-139880389D01*
X124640922Y-139712378D01*
X124130572Y-139741917D01*
X123796271Y-139880389D01*
X123740590Y-140110984D01*
X120758488Y-140110984D01*
X120624415Y-139910330D01*
X120309634Y-139700000D01*
X120624415Y-139489670D01*
X120949271Y-139003489D01*
X121063345Y-138430000D01*
X120949271Y-137856511D01*
X120624415Y-137370330D01*
X120309634Y-137160000D01*
X120624415Y-136949670D01*
X120949271Y-136463489D01*
X121063345Y-135890000D01*
X120949271Y-135316511D01*
X120624415Y-134830330D01*
X120309634Y-134620000D01*
X120624415Y-134409670D01*
X120949271Y-133923489D01*
X121063345Y-133350000D01*
X120949271Y-132776511D01*
X120624415Y-132290330D01*
X120309634Y-132080000D01*
X120624415Y-131869670D01*
X120949271Y-131383489D01*
X121063345Y-130810000D01*
X120949271Y-130236511D01*
X120624415Y-129750330D01*
X120309634Y-129540000D01*
X120624415Y-129329670D01*
X120949271Y-128843489D01*
X121063345Y-128270000D01*
X120949271Y-127696511D01*
X120624415Y-127210330D01*
X120309634Y-127000000D01*
X120624415Y-126789670D01*
X120949271Y-126303489D01*
X121063345Y-125730000D01*
X120949271Y-125156511D01*
X120624415Y-124670330D01*
X120309634Y-124460000D01*
X120624415Y-124249670D01*
X120949271Y-123763489D01*
X121063345Y-123190000D01*
X120949271Y-122616511D01*
X120713463Y-122263599D01*
X126534699Y-122263599D01*
X126798281Y-122901515D01*
X127086338Y-123190075D01*
X126799996Y-123475918D01*
X126535301Y-124113373D01*
X126534699Y-124803599D01*
X126798281Y-125441515D01*
X127086338Y-125730075D01*
X126799996Y-126015918D01*
X126535301Y-126653373D01*
X126534699Y-127343599D01*
X126798281Y-127981515D01*
X127086338Y-128270075D01*
X126799996Y-128555918D01*
X126535301Y-129193373D01*
X126534699Y-129883599D01*
X126798281Y-130521515D01*
X127086338Y-130810075D01*
X126799996Y-131095918D01*
X126535301Y-131733373D01*
X126534699Y-132423599D01*
X126798281Y-133061515D01*
X127086338Y-133350075D01*
X126799996Y-133635918D01*
X126535301Y-134273373D01*
X126534699Y-134963599D01*
X126798281Y-135601515D01*
X127086338Y-135890075D01*
X126799996Y-136175918D01*
X126535301Y-136813373D01*
X126534699Y-137503599D01*
X126798281Y-138141515D01*
X127285918Y-138630004D01*
X127923373Y-138894699D01*
X128613599Y-138895301D01*
X129251515Y-138631719D01*
X129740004Y-138144082D01*
X130004699Y-137506627D01*
X130005301Y-136816401D01*
X129741719Y-136178485D01*
X129453662Y-135889925D01*
X129740004Y-135604082D01*
X130004699Y-134966627D01*
X130005301Y-134276401D01*
X129741719Y-133638485D01*
X129453662Y-133349925D01*
X129740004Y-133064082D01*
X130004699Y-132426627D01*
X130005301Y-131736401D01*
X129741719Y-131098485D01*
X129453662Y-130809925D01*
X129740004Y-130524082D01*
X130004699Y-129886627D01*
X130005301Y-129196401D01*
X129741719Y-128558485D01*
X129453662Y-128269925D01*
X129740004Y-127984082D01*
X130004699Y-127346627D01*
X130005301Y-126656401D01*
X129741719Y-126018485D01*
X129453662Y-125729925D01*
X129740004Y-125444082D01*
X130004699Y-124806627D01*
X130005301Y-124116401D01*
X129741719Y-123478485D01*
X129453662Y-123189925D01*
X129740004Y-122904082D01*
X130004699Y-122266627D01*
X130005301Y-121576401D01*
X129741719Y-120938485D01*
X129254082Y-120449996D01*
X129093861Y-120383466D01*
X128270000Y-119559605D01*
X127446695Y-120382910D01*
X127288485Y-120448281D01*
X126799996Y-120935918D01*
X126535301Y-121573373D01*
X126534699Y-122263599D01*
X120713463Y-122263599D01*
X120624415Y-122130330D01*
X120309634Y-121920000D01*
X120624415Y-121709670D01*
X120824648Y-121410000D01*
X121920000Y-121410000D01*
X122210839Y-121352148D01*
X122457401Y-121187401D01*
X124553209Y-119091593D01*
X126524677Y-119091593D01*
X126547164Y-119781453D01*
X126767901Y-120314359D01*
X127045132Y-120425263D01*
X128090395Y-119380000D01*
X128449605Y-119380000D01*
X129494868Y-120425263D01*
X129772099Y-120314359D01*
X130015323Y-119668407D01*
X129992836Y-118978547D01*
X129772099Y-118445641D01*
X129494868Y-118334737D01*
X128449605Y-119380000D01*
X128090395Y-119380000D01*
X127045132Y-118334737D01*
X126767901Y-118445641D01*
X126524677Y-119091593D01*
X124553209Y-119091593D01*
X124997401Y-118647401D01*
X125162148Y-118400840D01*
X125180216Y-118310004D01*
X125220000Y-118110000D01*
X125220000Y-117183599D01*
X126534699Y-117183599D01*
X126798281Y-117821515D01*
X127285918Y-118310004D01*
X127446139Y-118376534D01*
X128270000Y-119200395D01*
X129093305Y-118377090D01*
X129251515Y-118311719D01*
X129740004Y-117824082D01*
X130004699Y-117186627D01*
X130005301Y-116496401D01*
X129741719Y-115858485D01*
X129254082Y-115369996D01*
X128616627Y-115105301D01*
X127926401Y-115104699D01*
X127288485Y-115368281D01*
X126799996Y-115855918D01*
X126535301Y-116493373D01*
X126534699Y-117183599D01*
X125220000Y-117183599D01*
X125220000Y-115884802D01*
X127314802Y-113790000D01*
X130495198Y-113790000D01*
X137892599Y-121187401D01*
X138139160Y-121352148D01*
X138430000Y-121410000D01*
X143205889Y-121410000D01*
X142971808Y-121643673D01*
X142829162Y-121987201D01*
X142829121Y-122034077D01*
X141448599Y-123414599D01*
X141283852Y-123661161D01*
X141226000Y-123952000D01*
X141226000Y-133803537D01*
X141193808Y-133835673D01*
X141051162Y-134179201D01*
X141050838Y-134551167D01*
X141192883Y-134894943D01*
X141455673Y-135158192D01*
X141799201Y-135300838D01*
X142171167Y-135301162D01*
X142514943Y-135159117D01*
X142778192Y-134896327D01*
X142920838Y-134552799D01*
X142921162Y-134180833D01*
X142779117Y-133837057D01*
X142746000Y-133803882D01*
X142746000Y-124266802D01*
X143903680Y-123109122D01*
X143949167Y-123109162D01*
X144292943Y-122967117D01*
X144556192Y-122704327D01*
X144698838Y-122360799D01*
X144699162Y-121988833D01*
X144557117Y-121645057D01*
X144322470Y-121410000D01*
X145875352Y-121410000D01*
X146075585Y-121709670D01*
X146390366Y-121920000D01*
X146075585Y-122130330D01*
X145750729Y-122616511D01*
X145636655Y-123190000D01*
X145750729Y-123763489D01*
X146075585Y-124249670D01*
X146390366Y-124460000D01*
X146075585Y-124670330D01*
X145750729Y-125156511D01*
X145636655Y-125730000D01*
X145750729Y-126303489D01*
X146075585Y-126789670D01*
X146390366Y-127000000D01*
X146075585Y-127210330D01*
X145750729Y-127696511D01*
X145636655Y-128270000D01*
X145750729Y-128843489D01*
X146075585Y-129329670D01*
X146390366Y-129540000D01*
X146075585Y-129750330D01*
X145750729Y-130236511D01*
X145636655Y-130810000D01*
X145750729Y-131383489D01*
X146075585Y-131869670D01*
X146390366Y-132080000D01*
X146075585Y-132290330D01*
X145750729Y-132776511D01*
X145636655Y-133350000D01*
X145750729Y-133923489D01*
X146075585Y-134409670D01*
X146390366Y-134620000D01*
X146075585Y-134830330D01*
X145750729Y-135316511D01*
X145636655Y-135890000D01*
X145750729Y-136463489D01*
X146075585Y-136949670D01*
X146561766Y-137274526D01*
X147135255Y-137388600D01*
X147504745Y-137388600D01*
X148078234Y-137274526D01*
X148564415Y-136949670D01*
X148889271Y-136463489D01*
X149003345Y-135890000D01*
X148889271Y-135316511D01*
X148564415Y-134830330D01*
X148249634Y-134620000D01*
X148564415Y-134409670D01*
X148889271Y-133923489D01*
X149003345Y-133350000D01*
X148889271Y-132776511D01*
X148564415Y-132290330D01*
X148249634Y-132080000D01*
X148564415Y-131869670D01*
X148889271Y-131383489D01*
X149003345Y-130810000D01*
X148889271Y-130236511D01*
X148564415Y-129750330D01*
X148249634Y-129540000D01*
X148564415Y-129329670D01*
X148889271Y-128843489D01*
X149003345Y-128270000D01*
X148889271Y-127696511D01*
X148564415Y-127210330D01*
X148249634Y-127000000D01*
X148564415Y-126789670D01*
X148889271Y-126303489D01*
X149003345Y-125730000D01*
X148889271Y-125156511D01*
X148564415Y-124670330D01*
X148249634Y-124460000D01*
X148564415Y-124249670D01*
X148889271Y-123763489D01*
X149003345Y-123190000D01*
X148889271Y-122616511D01*
X148564415Y-122130330D01*
X148249634Y-121920000D01*
X148564415Y-121709670D01*
X148889271Y-121223489D01*
X149003345Y-120650000D01*
X148889271Y-120076511D01*
X148564415Y-119590330D01*
X148249634Y-119380000D01*
X148564415Y-119169670D01*
X148889271Y-118683489D01*
X149003345Y-118110000D01*
X148889271Y-117536511D01*
X148564415Y-117050330D01*
X148249634Y-116840000D01*
X148564415Y-116629670D01*
X148889271Y-116143489D01*
X149003345Y-115570000D01*
X148889271Y-114996511D01*
X148564415Y-114510330D01*
X148249634Y-114300000D01*
X148564415Y-114089670D01*
X148889271Y-113603489D01*
X149003345Y-113030000D01*
X148889271Y-112456511D01*
X148564415Y-111970330D01*
X148249634Y-111760000D01*
X148564415Y-111549670D01*
X148889271Y-111063489D01*
X149003345Y-110490000D01*
X148889271Y-109916511D01*
X148564415Y-109430330D01*
X148254931Y-109223539D01*
X148670732Y-108852036D01*
X148924709Y-108324791D01*
X148927358Y-108309026D01*
X148806217Y-108077000D01*
X147447000Y-108077000D01*
X147447000Y-108097000D01*
X147193000Y-108097000D01*
X147193000Y-108077000D01*
X145833783Y-108077000D01*
X145712642Y-108309026D01*
X145715291Y-108324791D01*
X145969268Y-108852036D01*
X146385069Y-109223539D01*
X146075585Y-109430330D01*
X145750729Y-109916511D01*
X145636655Y-110490000D01*
X145750729Y-111063489D01*
X146075585Y-111549670D01*
X146390366Y-111760000D01*
X146075585Y-111970330D01*
X145750729Y-112456511D01*
X145636655Y-113030000D01*
X145750729Y-113603489D01*
X146075585Y-114089670D01*
X146390366Y-114300000D01*
X146075585Y-114510330D01*
X145875352Y-114810000D01*
X139072463Y-114810000D01*
X139040327Y-114777808D01*
X138696799Y-114635162D01*
X138324833Y-114634838D01*
X137981057Y-114776883D01*
X137717808Y-115039673D01*
X137575162Y-115383201D01*
X137574838Y-115755167D01*
X137716883Y-116098943D01*
X137979673Y-116362192D01*
X138323201Y-116504838D01*
X138695167Y-116505162D01*
X139038943Y-116363117D01*
X139072118Y-116330000D01*
X145875352Y-116330000D01*
X146075585Y-116629670D01*
X146390366Y-116840000D01*
X146075585Y-117050330D01*
X145875352Y-117350000D01*
X138744802Y-117350000D01*
X131347401Y-109952599D01*
X131100839Y-109787852D01*
X130810000Y-109730000D01*
X127000000Y-109730000D01*
X126709161Y-109787852D01*
X126462599Y-109952599D01*
X122652599Y-113762599D01*
X122487852Y-114009161D01*
X122430000Y-114300000D01*
X122430000Y-116525198D01*
X121605198Y-117350000D01*
X120824648Y-117350000D01*
X120624415Y-117050330D01*
X120309634Y-116840000D01*
X120624415Y-116629670D01*
X120949271Y-116143489D01*
X121063345Y-115570000D01*
X120949271Y-114996511D01*
X120624415Y-114510330D01*
X120309634Y-114300000D01*
X120624415Y-114089670D01*
X120949271Y-113603489D01*
X121063345Y-113030000D01*
X120949271Y-112456511D01*
X120624415Y-111970330D01*
X120309634Y-111760000D01*
X120624415Y-111549670D01*
X120949271Y-111063489D01*
X121063345Y-110490000D01*
X120949271Y-109916511D01*
X120624415Y-109430330D01*
X120309634Y-109220000D01*
X120624415Y-109009670D01*
X120949271Y-108523489D01*
X121020682Y-108164481D01*
X124444777Y-108164481D01*
X124639995Y-108636943D01*
X125001155Y-108998735D01*
X125473276Y-109194777D01*
X125984481Y-109195223D01*
X126456943Y-109000005D01*
X126818735Y-108638845D01*
X127014777Y-108166724D01*
X127015223Y-107655519D01*
X126868326Y-107300000D01*
X130782560Y-107300000D01*
X130782560Y-108600000D01*
X130826838Y-108835317D01*
X130965910Y-109051441D01*
X131178110Y-109196431D01*
X131430000Y-109247440D01*
X132730000Y-109247440D01*
X132965317Y-109203162D01*
X133181441Y-109064090D01*
X133326431Y-108851890D01*
X133355164Y-108710000D01*
X134620000Y-108710000D01*
X134910839Y-108652148D01*
X135157401Y-108487401D01*
X140774802Y-102870000D01*
X145636655Y-102870000D01*
X145750729Y-103443489D01*
X146075585Y-103929670D01*
X146390366Y-104140000D01*
X146075585Y-104350330D01*
X145750729Y-104836511D01*
X145636655Y-105410000D01*
X145750729Y-105983489D01*
X146075585Y-106469670D01*
X146385069Y-106676461D01*
X145969268Y-107047964D01*
X145715291Y-107575209D01*
X145712642Y-107590974D01*
X145833783Y-107823000D01*
X147193000Y-107823000D01*
X147193000Y-107803000D01*
X147447000Y-107803000D01*
X147447000Y-107823000D01*
X148806217Y-107823000D01*
X148927358Y-107590974D01*
X148924709Y-107575209D01*
X148670732Y-107047964D01*
X148254931Y-106676461D01*
X148564415Y-106469670D01*
X148889271Y-105983489D01*
X149003345Y-105410000D01*
X160876655Y-105410000D01*
X160990729Y-105983489D01*
X161315585Y-106469670D01*
X161630366Y-106680000D01*
X161315585Y-106890330D01*
X160990729Y-107376511D01*
X160876655Y-107950000D01*
X160990729Y-108523489D01*
X161315585Y-109009670D01*
X161630366Y-109220000D01*
X161315585Y-109430330D01*
X160990729Y-109916511D01*
X160876655Y-110490000D01*
X160990729Y-111063489D01*
X161315585Y-111549670D01*
X161630366Y-111760000D01*
X161315585Y-111970330D01*
X160990729Y-112456511D01*
X160876655Y-113030000D01*
X160990729Y-113603489D01*
X161315585Y-114089670D01*
X161630366Y-114300000D01*
X161315585Y-114510330D01*
X160990729Y-114996511D01*
X160876655Y-115570000D01*
X160990729Y-116143489D01*
X161315585Y-116629670D01*
X161630366Y-116840000D01*
X161315585Y-117050330D01*
X160990729Y-117536511D01*
X160876655Y-118110000D01*
X160990729Y-118683489D01*
X161315585Y-119169670D01*
X161630366Y-119380000D01*
X161315585Y-119590330D01*
X160990729Y-120076511D01*
X160876655Y-120650000D01*
X160990729Y-121223489D01*
X161315585Y-121709670D01*
X161630366Y-121920000D01*
X161315585Y-122130330D01*
X160990729Y-122616511D01*
X160876655Y-123190000D01*
X160990729Y-123763489D01*
X161315585Y-124249670D01*
X161630366Y-124460000D01*
X161315585Y-124670330D01*
X160990729Y-125156511D01*
X160876655Y-125730000D01*
X160990729Y-126303489D01*
X161315585Y-126789670D01*
X161630366Y-127000000D01*
X161315585Y-127210330D01*
X160990729Y-127696511D01*
X160876655Y-128270000D01*
X160990729Y-128843489D01*
X161315585Y-129329670D01*
X161630366Y-129540000D01*
X161315585Y-129750330D01*
X160990729Y-130236511D01*
X160876655Y-130810000D01*
X160990729Y-131383489D01*
X161315585Y-131869670D01*
X161630366Y-132080000D01*
X161315585Y-132290330D01*
X160990729Y-132776511D01*
X160876655Y-133350000D01*
X160990729Y-133923489D01*
X161315585Y-134409670D01*
X161630366Y-134620000D01*
X161315585Y-134830330D01*
X160990729Y-135316511D01*
X160876655Y-135890000D01*
X160990729Y-136463489D01*
X161315585Y-136949670D01*
X161801766Y-137274526D01*
X162375255Y-137388600D01*
X162744745Y-137388600D01*
X163318234Y-137274526D01*
X163804415Y-136949670D01*
X164129271Y-136463489D01*
X164243345Y-135890000D01*
X164129271Y-135316511D01*
X163804415Y-134830330D01*
X163489634Y-134620000D01*
X163804415Y-134409670D01*
X164129271Y-133923489D01*
X164243345Y-133350000D01*
X164129271Y-132776511D01*
X163804415Y-132290330D01*
X163489634Y-132080000D01*
X163804415Y-131869670D01*
X164129271Y-131383489D01*
X164243345Y-130810000D01*
X164129271Y-130236511D01*
X163804415Y-129750330D01*
X163489634Y-129540000D01*
X163804415Y-129329670D01*
X164129271Y-128843489D01*
X164243345Y-128270000D01*
X164129271Y-127696511D01*
X163804415Y-127210330D01*
X163489634Y-127000000D01*
X163804415Y-126789670D01*
X164129271Y-126303489D01*
X164243345Y-125730000D01*
X169579050Y-125730000D01*
X169688283Y-126279151D01*
X169999352Y-126744698D01*
X170381438Y-127000000D01*
X169999352Y-127255302D01*
X169688283Y-127720849D01*
X169579050Y-128270000D01*
X169688283Y-128819151D01*
X169999352Y-129284698D01*
X170381438Y-129540000D01*
X169999352Y-129795302D01*
X169688283Y-130260849D01*
X169579050Y-130810000D01*
X169688283Y-131359151D01*
X169999352Y-131824698D01*
X170381438Y-132080000D01*
X169999352Y-132335302D01*
X169688283Y-132800849D01*
X169579050Y-133350000D01*
X169688283Y-133899151D01*
X169999352Y-134364698D01*
X170381438Y-134620000D01*
X169999352Y-134875302D01*
X169688283Y-135340849D01*
X169579050Y-135890000D01*
X169688283Y-136439151D01*
X169999352Y-136904698D01*
X170381438Y-137160000D01*
X169999352Y-137415302D01*
X169688283Y-137880849D01*
X169579050Y-138430000D01*
X169688283Y-138979151D01*
X169999352Y-139444698D01*
X170377707Y-139697507D01*
X169945500Y-140045104D01*
X169675633Y-140538181D01*
X169658096Y-140620961D01*
X169780085Y-140843000D01*
X171323000Y-140843000D01*
X171323000Y-140823000D01*
X171577000Y-140823000D01*
X171577000Y-140843000D01*
X173119915Y-140843000D01*
X173241904Y-140620961D01*
X173224367Y-140538181D01*
X172954500Y-140045104D01*
X172522293Y-139697507D01*
X172900648Y-139444698D01*
X173211717Y-138979151D01*
X173320950Y-138430000D01*
X173211717Y-137880849D01*
X172900648Y-137415302D01*
X172518562Y-137160000D01*
X172900648Y-136904698D01*
X173211717Y-136439151D01*
X173320950Y-135890000D01*
X173211717Y-135340849D01*
X172900648Y-134875302D01*
X172518562Y-134620000D01*
X172900648Y-134364698D01*
X173211717Y-133899151D01*
X173320950Y-133350000D01*
X173211717Y-132800849D01*
X172900648Y-132335302D01*
X172518562Y-132080000D01*
X172900648Y-131824698D01*
X173211717Y-131359151D01*
X173320950Y-130810000D01*
X173211717Y-130260849D01*
X172900648Y-129795302D01*
X172518562Y-129540000D01*
X172900648Y-129284698D01*
X173211717Y-128819151D01*
X173320950Y-128270000D01*
X173211717Y-127720849D01*
X172900648Y-127255302D01*
X172518562Y-127000000D01*
X172900648Y-126744698D01*
X173211717Y-126279151D01*
X173320950Y-125730000D01*
X173211717Y-125180849D01*
X172900648Y-124715302D01*
X172754650Y-124617749D01*
X172885317Y-124593162D01*
X173101441Y-124454090D01*
X173246431Y-124241890D01*
X173297440Y-123990000D01*
X173297440Y-122390000D01*
X173253162Y-122154683D01*
X173114090Y-121938559D01*
X172901890Y-121793569D01*
X172650000Y-121742560D01*
X170250000Y-121742560D01*
X170014683Y-121786838D01*
X169798559Y-121925910D01*
X169653569Y-122138110D01*
X169602560Y-122390000D01*
X169602560Y-123990000D01*
X169646838Y-124225317D01*
X169785910Y-124441441D01*
X169998110Y-124586431D01*
X170147074Y-124616597D01*
X169999352Y-124715302D01*
X169688283Y-125180849D01*
X169579050Y-125730000D01*
X164243345Y-125730000D01*
X164129271Y-125156511D01*
X163804415Y-124670330D01*
X163489634Y-124460000D01*
X163804415Y-124249670D01*
X164129271Y-123763489D01*
X164243345Y-123190000D01*
X164129271Y-122616511D01*
X163804415Y-122130330D01*
X163489634Y-121920000D01*
X163804415Y-121709670D01*
X164129271Y-121223489D01*
X164243345Y-120650000D01*
X164129271Y-120076511D01*
X163804415Y-119590330D01*
X163489634Y-119380000D01*
X163804415Y-119169670D01*
X164129271Y-118683489D01*
X164243345Y-118110000D01*
X164129271Y-117536511D01*
X163804415Y-117050330D01*
X163489634Y-116840000D01*
X163804415Y-116629670D01*
X164129271Y-116143489D01*
X164243345Y-115570000D01*
X164129271Y-114996511D01*
X163804415Y-114510330D01*
X163489634Y-114300000D01*
X163804415Y-114089670D01*
X164129271Y-113603489D01*
X164243345Y-113030000D01*
X164129271Y-112456511D01*
X163804415Y-111970330D01*
X163489634Y-111760000D01*
X163804415Y-111549670D01*
X164129271Y-111063489D01*
X164243345Y-110490000D01*
X164129271Y-109916511D01*
X163804415Y-109430330D01*
X163489634Y-109220000D01*
X163804415Y-109009670D01*
X164129271Y-108523489D01*
X164243345Y-107950000D01*
X164129271Y-107376511D01*
X163804415Y-106890330D01*
X163489634Y-106680000D01*
X163804415Y-106469670D01*
X164129271Y-105983489D01*
X164243345Y-105410000D01*
X164129271Y-104836511D01*
X163804415Y-104350330D01*
X163494931Y-104143539D01*
X163910732Y-103772036D01*
X164164709Y-103244791D01*
X164167358Y-103229026D01*
X164046217Y-102997000D01*
X162687000Y-102997000D01*
X162687000Y-103017000D01*
X162433000Y-103017000D01*
X162433000Y-102997000D01*
X161073783Y-102997000D01*
X160952642Y-103229026D01*
X160955291Y-103244791D01*
X161209268Y-103772036D01*
X161625069Y-104143539D01*
X161315585Y-104350330D01*
X160990729Y-104836511D01*
X160876655Y-105410000D01*
X149003345Y-105410000D01*
X148889271Y-104836511D01*
X148564415Y-104350330D01*
X148249634Y-104140000D01*
X148564415Y-103929670D01*
X148889271Y-103443489D01*
X149003345Y-102870000D01*
X148889271Y-102296511D01*
X148564415Y-101810330D01*
X148550087Y-101800757D01*
X148571317Y-101796762D01*
X148787441Y-101657690D01*
X148932431Y-101445490D01*
X148983440Y-101193600D01*
X148983440Y-99466400D01*
X160896560Y-99466400D01*
X160896560Y-101193600D01*
X160940838Y-101428917D01*
X161079910Y-101645041D01*
X161292110Y-101790031D01*
X161386927Y-101809232D01*
X161209268Y-101967964D01*
X160955291Y-102495209D01*
X160952642Y-102510974D01*
X161073783Y-102743000D01*
X162433000Y-102743000D01*
X162433000Y-102723000D01*
X162687000Y-102723000D01*
X162687000Y-102743000D01*
X164046217Y-102743000D01*
X164167358Y-102510974D01*
X164164709Y-102495209D01*
X163910732Y-101967964D01*
X163735155Y-101811093D01*
X163811317Y-101796762D01*
X164027441Y-101657690D01*
X164172431Y-101445490D01*
X164223440Y-101193600D01*
X164223440Y-99466400D01*
X164179162Y-99231083D01*
X164040090Y-99014959D01*
X163827890Y-98869969D01*
X163576000Y-98818960D01*
X161544000Y-98818960D01*
X161308683Y-98863238D01*
X161092559Y-99002310D01*
X160947569Y-99214510D01*
X160896560Y-99466400D01*
X148983440Y-99466400D01*
X148939162Y-99231083D01*
X148800090Y-99014959D01*
X148587890Y-98869969D01*
X148336000Y-98818960D01*
X146304000Y-98818960D01*
X146068683Y-98863238D01*
X145852559Y-99002310D01*
X145707569Y-99214510D01*
X145656560Y-99466400D01*
X145656560Y-101193600D01*
X145700838Y-101428917D01*
X145839910Y-101645041D01*
X146052110Y-101790031D01*
X146093439Y-101798400D01*
X146075585Y-101810330D01*
X145750729Y-102296511D01*
X145636655Y-102870000D01*
X140774802Y-102870000D01*
X146364802Y-97280000D01*
X163515198Y-97280000D01*
X174500000Y-108264802D01*
X174500000Y-137160000D01*
X174557852Y-137450839D01*
X174722599Y-137697401D01*
X177363464Y-140338266D01*
X177308283Y-140420849D01*
X177199050Y-140970000D01*
X177308283Y-141519151D01*
X177619352Y-141984698D01*
X178084899Y-142295767D01*
X178634050Y-142405000D01*
X179505950Y-142405000D01*
X180055101Y-142295767D01*
X180520648Y-141984698D01*
X180809054Y-141553069D01*
X180877401Y-141507401D01*
X187613031Y-134771771D01*
X187930907Y-134835000D01*
X187989093Y-134835000D01*
X188557378Y-134721961D01*
X189039147Y-134400054D01*
X189361054Y-133918285D01*
X189474093Y-133350000D01*
X189361054Y-132781715D01*
X189039147Y-132299946D01*
X188709974Y-132080000D01*
X189039147Y-131860054D01*
X189361054Y-131378285D01*
X189474093Y-130810000D01*
X189361054Y-130241715D01*
X189039147Y-129759946D01*
X188709974Y-129540000D01*
X189039147Y-129320054D01*
X189361054Y-128838285D01*
X189474093Y-128270000D01*
X189361054Y-127701715D01*
X189039147Y-127219946D01*
X188709974Y-127000000D01*
X189039147Y-126780054D01*
X189361054Y-126298285D01*
X189474093Y-125730000D01*
X189361054Y-125161715D01*
X189039147Y-124679946D01*
X188997548Y-124652150D01*
X189045317Y-124643162D01*
X189261441Y-124504090D01*
X189406431Y-124291890D01*
X189457440Y-124040000D01*
X189457440Y-122340000D01*
X189413162Y-122104683D01*
X189274090Y-121888559D01*
X189061890Y-121743569D01*
X188810000Y-121692560D01*
X187110000Y-121692560D01*
X186874683Y-121736838D01*
X186658559Y-121875910D01*
X186513569Y-122088110D01*
X186462560Y-122340000D01*
X186462560Y-124040000D01*
X186506838Y-124275317D01*
X186645910Y-124491441D01*
X186858110Y-124636431D01*
X186925541Y-124650086D01*
X186880853Y-124679946D01*
X186558946Y-125161715D01*
X186445907Y-125730000D01*
X186558946Y-126298285D01*
X186880853Y-126780054D01*
X187210026Y-127000000D01*
X186880853Y-127219946D01*
X186558946Y-127701715D01*
X186445907Y-128270000D01*
X186558946Y-128838285D01*
X186880853Y-129320054D01*
X187210026Y-129540000D01*
X186880853Y-129759946D01*
X186558946Y-130241715D01*
X186445907Y-130810000D01*
X186558946Y-131378285D01*
X186880853Y-131860054D01*
X187210026Y-132080000D01*
X186880853Y-132299946D01*
X186558946Y-132781715D01*
X186445907Y-133350000D01*
X186518790Y-133716408D01*
X180376328Y-139858870D01*
X180138562Y-139700000D01*
X180520648Y-139444698D01*
X180831717Y-138979151D01*
X180940950Y-138430000D01*
X180831717Y-137880849D01*
X180520648Y-137415302D01*
X180138562Y-137160000D01*
X180520648Y-136904698D01*
X180831717Y-136439151D01*
X180940950Y-135890000D01*
X180831717Y-135340849D01*
X180520648Y-134875302D01*
X180138562Y-134620000D01*
X180520648Y-134364698D01*
X180831717Y-133899151D01*
X180940950Y-133350000D01*
X180831717Y-132800849D01*
X180520648Y-132335302D01*
X180138562Y-132080000D01*
X180520648Y-131824698D01*
X180831717Y-131359151D01*
X180940950Y-130810000D01*
X180831717Y-130260849D01*
X180520648Y-129795302D01*
X180138562Y-129540000D01*
X180520648Y-129284698D01*
X180831717Y-128819151D01*
X180940950Y-128270000D01*
X180831717Y-127720849D01*
X180520648Y-127255302D01*
X180138562Y-127000000D01*
X180520648Y-126744698D01*
X180831717Y-126279151D01*
X180940950Y-125730000D01*
X180831717Y-125180849D01*
X180520648Y-124715302D01*
X180138562Y-124460000D01*
X180520648Y-124204698D01*
X180831717Y-123739151D01*
X180940950Y-123190000D01*
X180831717Y-122640849D01*
X180520648Y-122175302D01*
X180055101Y-121864233D01*
X179505950Y-121755000D01*
X178634050Y-121755000D01*
X178084899Y-121864233D01*
X177619352Y-122175302D01*
X177308283Y-122640849D01*
X177199050Y-123190000D01*
X177308283Y-123739151D01*
X177619352Y-124204698D01*
X178001438Y-124460000D01*
X177619352Y-124715302D01*
X177308283Y-125180849D01*
X177199050Y-125730000D01*
X177308283Y-126279151D01*
X177619352Y-126744698D01*
X178001438Y-127000000D01*
X177619352Y-127255302D01*
X177308283Y-127720849D01*
X177199050Y-128270000D01*
X177308283Y-128819151D01*
X177619352Y-129284698D01*
X178001438Y-129540000D01*
X177619352Y-129795302D01*
X177308283Y-130260849D01*
X177199050Y-130810000D01*
X177308283Y-131359151D01*
X177619352Y-131824698D01*
X178001438Y-132080000D01*
X177619352Y-132335302D01*
X177308283Y-132800849D01*
X177199050Y-133350000D01*
X177308283Y-133899151D01*
X177619352Y-134364698D01*
X178001438Y-134620000D01*
X177619352Y-134875302D01*
X177308283Y-135340849D01*
X177199050Y-135890000D01*
X177308283Y-136439151D01*
X177619352Y-136904698D01*
X178001438Y-137160000D01*
X177619352Y-137415302D01*
X177308283Y-137880849D01*
X177266369Y-138091567D01*
X176020000Y-136845198D01*
X176020000Y-107950000D01*
X175962148Y-107659161D01*
X175797401Y-107412599D01*
X164367401Y-95982599D01*
X164120839Y-95817852D01*
X163830000Y-95760000D01*
X146050000Y-95760000D01*
X145759161Y-95817852D01*
X145512599Y-95982599D01*
X134305198Y-107190000D01*
X133356742Y-107190000D01*
X133333162Y-107064683D01*
X133194090Y-106848559D01*
X132981890Y-106703569D01*
X132730000Y-106652560D01*
X132567615Y-106652560D01*
X132743729Y-106579611D01*
X132799410Y-106349016D01*
X132080000Y-105629605D01*
X131360590Y-106349016D01*
X131416271Y-106579611D01*
X131625902Y-106652560D01*
X131430000Y-106652560D01*
X131194683Y-106696838D01*
X130978559Y-106835910D01*
X130833569Y-107048110D01*
X130782560Y-107300000D01*
X126868326Y-107300000D01*
X126820005Y-107183057D01*
X126458845Y-106821265D01*
X126154765Y-106695000D01*
X126506310Y-106695000D01*
X126739699Y-106598327D01*
X126918327Y-106419698D01*
X127015000Y-106186309D01*
X127015000Y-105695750D01*
X126856250Y-105537000D01*
X125857000Y-105537000D01*
X125857000Y-105557000D01*
X125603000Y-105557000D01*
X125603000Y-105537000D01*
X124603750Y-105537000D01*
X124445000Y-105695750D01*
X124445000Y-106186309D01*
X124541673Y-106419698D01*
X124720301Y-106598327D01*
X124953690Y-106695000D01*
X125305567Y-106695000D01*
X125003057Y-106819995D01*
X124641265Y-107181155D01*
X124445223Y-107653276D01*
X124444777Y-108164481D01*
X121020682Y-108164481D01*
X121063345Y-107950000D01*
X120949271Y-107376511D01*
X120624415Y-106890330D01*
X120309634Y-106680000D01*
X120624415Y-106469670D01*
X120949271Y-105983489D01*
X121063345Y-105410000D01*
X120949271Y-104836511D01*
X120813751Y-104633691D01*
X124445000Y-104633691D01*
X124445000Y-105124250D01*
X124603750Y-105283000D01*
X125603000Y-105283000D01*
X125603000Y-104283750D01*
X125857000Y-104283750D01*
X125857000Y-105283000D01*
X126856250Y-105283000D01*
X126870172Y-105269078D01*
X130782378Y-105269078D01*
X130811917Y-105779428D01*
X130950389Y-106113729D01*
X131180984Y-106169410D01*
X131900395Y-105450000D01*
X132259605Y-105450000D01*
X132979016Y-106169410D01*
X133209611Y-106113729D01*
X133377622Y-105630922D01*
X133348083Y-105120572D01*
X133209611Y-104786271D01*
X132979016Y-104730590D01*
X132259605Y-105450000D01*
X131900395Y-105450000D01*
X131180984Y-104730590D01*
X130950389Y-104786271D01*
X130782378Y-105269078D01*
X126870172Y-105269078D01*
X127015000Y-105124250D01*
X127015000Y-104633691D01*
X126980742Y-104550984D01*
X131360590Y-104550984D01*
X132080000Y-105270395D01*
X132799410Y-104550984D01*
X132743729Y-104320389D01*
X132260922Y-104152378D01*
X131750572Y-104181917D01*
X131416271Y-104320389D01*
X131360590Y-104550984D01*
X126980742Y-104550984D01*
X126918327Y-104400302D01*
X126739699Y-104221673D01*
X126506310Y-104125000D01*
X126015750Y-104125000D01*
X125857000Y-104283750D01*
X125603000Y-104283750D01*
X125444250Y-104125000D01*
X124953690Y-104125000D01*
X124720301Y-104221673D01*
X124541673Y-104400302D01*
X124445000Y-104633691D01*
X120813751Y-104633691D01*
X120624415Y-104350330D01*
X120309634Y-104140000D01*
X120624415Y-103929670D01*
X120949271Y-103443489D01*
X121063345Y-102870000D01*
X120949271Y-102296511D01*
X120624415Y-101810330D01*
X120309634Y-101600000D01*
X120624415Y-101389670D01*
X120949271Y-100903489D01*
X121020682Y-100544481D01*
X124444777Y-100544481D01*
X124639995Y-101016943D01*
X125001155Y-101378735D01*
X125473276Y-101574777D01*
X125984481Y-101575223D01*
X126456943Y-101380005D01*
X126818735Y-101018845D01*
X127014777Y-100546724D01*
X127015223Y-100035519D01*
X126868326Y-99680000D01*
X130782560Y-99680000D01*
X130782560Y-100980000D01*
X130826838Y-101215317D01*
X130965910Y-101431441D01*
X131178110Y-101576431D01*
X131430000Y-101627440D01*
X132730000Y-101627440D01*
X132965317Y-101583162D01*
X133181441Y-101444090D01*
X133326431Y-101231890D01*
X133377440Y-100980000D01*
X133377440Y-99680000D01*
X133333162Y-99444683D01*
X133194090Y-99228559D01*
X132981890Y-99083569D01*
X132730000Y-99032560D01*
X132567615Y-99032560D01*
X132743729Y-98959611D01*
X132799410Y-98729016D01*
X132080000Y-98009605D01*
X131360590Y-98729016D01*
X131416271Y-98959611D01*
X131625902Y-99032560D01*
X131430000Y-99032560D01*
X131194683Y-99076838D01*
X130978559Y-99215910D01*
X130833569Y-99428110D01*
X130782560Y-99680000D01*
X126868326Y-99680000D01*
X126820005Y-99563057D01*
X126458845Y-99201265D01*
X126154765Y-99075000D01*
X126506310Y-99075000D01*
X126739699Y-98978327D01*
X126918327Y-98799698D01*
X127015000Y-98566309D01*
X127015000Y-98075750D01*
X126856250Y-97917000D01*
X125857000Y-97917000D01*
X125857000Y-97937000D01*
X125603000Y-97937000D01*
X125603000Y-97917000D01*
X124603750Y-97917000D01*
X124445000Y-98075750D01*
X124445000Y-98566309D01*
X124541673Y-98799698D01*
X124720301Y-98978327D01*
X124953690Y-99075000D01*
X125305567Y-99075000D01*
X125003057Y-99199995D01*
X124641265Y-99561155D01*
X124445223Y-100033276D01*
X124444777Y-100544481D01*
X121020682Y-100544481D01*
X121063345Y-100330000D01*
X120949271Y-99756511D01*
X120624415Y-99270330D01*
X120602220Y-99255500D01*
X120755699Y-99191927D01*
X120934327Y-99013298D01*
X121031000Y-98779909D01*
X121031000Y-98075750D01*
X120872250Y-97917000D01*
X119507000Y-97917000D01*
X119507000Y-97937000D01*
X119253000Y-97937000D01*
X119253000Y-97917000D01*
X117887750Y-97917000D01*
X117729000Y-98075750D01*
X117729000Y-98779909D01*
X117825673Y-99013298D01*
X118004301Y-99191927D01*
X118157780Y-99255500D01*
X118135585Y-99270330D01*
X117810729Y-99756511D01*
X117696655Y-100330000D01*
X117525000Y-100330000D01*
X117525000Y-96800091D01*
X117729000Y-96800091D01*
X117729000Y-97504250D01*
X117887750Y-97663000D01*
X119253000Y-97663000D01*
X119253000Y-96450150D01*
X119507000Y-96450150D01*
X119507000Y-97663000D01*
X120872250Y-97663000D01*
X121031000Y-97504250D01*
X121031000Y-97013691D01*
X124445000Y-97013691D01*
X124445000Y-97504250D01*
X124603750Y-97663000D01*
X125603000Y-97663000D01*
X125603000Y-96663750D01*
X125857000Y-96663750D01*
X125857000Y-97663000D01*
X126856250Y-97663000D01*
X126870172Y-97649078D01*
X130782378Y-97649078D01*
X130811917Y-98159428D01*
X130950389Y-98493729D01*
X131180984Y-98549410D01*
X131900395Y-97830000D01*
X132259605Y-97830000D01*
X132979016Y-98549410D01*
X133209611Y-98493729D01*
X133377622Y-98010922D01*
X133348083Y-97500572D01*
X133209611Y-97166271D01*
X132979016Y-97110590D01*
X132259605Y-97830000D01*
X131900395Y-97830000D01*
X131180984Y-97110590D01*
X130950389Y-97166271D01*
X130782378Y-97649078D01*
X126870172Y-97649078D01*
X127015000Y-97504250D01*
X127015000Y-97013691D01*
X126980742Y-96930984D01*
X131360590Y-96930984D01*
X132080000Y-97650395D01*
X132799410Y-96930984D01*
X132743729Y-96700389D01*
X132260922Y-96532378D01*
X131750572Y-96561917D01*
X131416271Y-96700389D01*
X131360590Y-96930984D01*
X126980742Y-96930984D01*
X126918327Y-96780302D01*
X126739699Y-96601673D01*
X126506310Y-96505000D01*
X126015750Y-96505000D01*
X125857000Y-96663750D01*
X125603000Y-96663750D01*
X125444250Y-96505000D01*
X124953690Y-96505000D01*
X124720301Y-96601673D01*
X124541673Y-96780302D01*
X124445000Y-97013691D01*
X121031000Y-97013691D01*
X121031000Y-96800091D01*
X120934327Y-96566702D01*
X120755699Y-96388073D01*
X120522310Y-96291400D01*
X119665750Y-96291400D01*
X119507000Y-96450150D01*
X119253000Y-96450150D01*
X119094250Y-96291400D01*
X118237690Y-96291400D01*
X118004301Y-96388073D01*
X117825673Y-96566702D01*
X117729000Y-96800091D01*
X117525000Y-96800091D01*
X117525000Y-94665000D01*
X191085000Y-94665000D01*
X191085000Y-145365000D01*
X191085000Y-145365000D01*
G37*
X191085000Y-145365000D02*
X117525000Y-145365000D01*
X117525000Y-100330000D01*
X117696655Y-100330000D01*
X117810729Y-100903489D01*
X118135585Y-101389670D01*
X118450366Y-101600000D01*
X118135585Y-101810330D01*
X117810729Y-102296511D01*
X117696655Y-102870000D01*
X117810729Y-103443489D01*
X118135585Y-103929670D01*
X118450366Y-104140000D01*
X118135585Y-104350330D01*
X117810729Y-104836511D01*
X117696655Y-105410000D01*
X117810729Y-105983489D01*
X118135585Y-106469670D01*
X118450366Y-106680000D01*
X118135585Y-106890330D01*
X117810729Y-107376511D01*
X117696655Y-107950000D01*
X117810729Y-108523489D01*
X118135585Y-109009670D01*
X118450366Y-109220000D01*
X118135585Y-109430330D01*
X117810729Y-109916511D01*
X117696655Y-110490000D01*
X117810729Y-111063489D01*
X118135585Y-111549670D01*
X118450366Y-111760000D01*
X118135585Y-111970330D01*
X117810729Y-112456511D01*
X117696655Y-113030000D01*
X117810729Y-113603489D01*
X118135585Y-114089670D01*
X118450366Y-114300000D01*
X118135585Y-114510330D01*
X117810729Y-114996511D01*
X117696655Y-115570000D01*
X117810729Y-116143489D01*
X118135585Y-116629670D01*
X118450366Y-116840000D01*
X118135585Y-117050330D01*
X117810729Y-117536511D01*
X117696655Y-118110000D01*
X117810729Y-118683489D01*
X118135585Y-119169670D01*
X118450366Y-119380000D01*
X118135585Y-119590330D01*
X117810729Y-120076511D01*
X117696655Y-120650000D01*
X117810729Y-121223489D01*
X118135585Y-121709670D01*
X118450366Y-121920000D01*
X118135585Y-122130330D01*
X117810729Y-122616511D01*
X117696655Y-123190000D01*
X117810729Y-123763489D01*
X118135585Y-124249670D01*
X118450366Y-124460000D01*
X118135585Y-124670330D01*
X117810729Y-125156511D01*
X117696655Y-125730000D01*
X117810729Y-126303489D01*
X118135585Y-126789670D01*
X118450366Y-127000000D01*
X118135585Y-127210330D01*
X117810729Y-127696511D01*
X117696655Y-128270000D01*
X117810729Y-128843489D01*
X118135585Y-129329670D01*
X118450366Y-129540000D01*
X118135585Y-129750330D01*
X117810729Y-130236511D01*
X117696655Y-130810000D01*
X117810729Y-131383489D01*
X118135585Y-131869670D01*
X118450366Y-132080000D01*
X118135585Y-132290330D01*
X117810729Y-132776511D01*
X117696655Y-133350000D01*
X117810729Y-133923489D01*
X118135585Y-134409670D01*
X118450366Y-134620000D01*
X118135585Y-134830330D01*
X117810729Y-135316511D01*
X117696655Y-135890000D01*
X117810729Y-136463489D01*
X118135585Y-136949670D01*
X118450366Y-137160000D01*
X118135585Y-137370330D01*
X117810729Y-137856511D01*
X117696655Y-138430000D01*
X117810729Y-139003489D01*
X118135585Y-139489670D01*
X118450366Y-139700000D01*
X118135585Y-139910330D01*
X117810729Y-140396511D01*
X117696655Y-140970000D01*
X117810729Y-141543489D01*
X118135585Y-142029670D01*
X118450366Y-142240000D01*
X118135585Y-142450330D01*
X117810729Y-142936511D01*
X117696655Y-143510000D01*
X117810729Y-144083489D01*
X118135585Y-144569670D01*
X118621766Y-144894526D01*
X119195255Y-145008600D01*
X119564745Y-145008600D01*
X120138234Y-144894526D01*
X120624415Y-144569670D01*
X120949271Y-144083489D01*
X121063345Y-143510000D01*
X120949271Y-142936511D01*
X120898148Y-142860000D01*
X123162560Y-142860000D01*
X123162560Y-144160000D01*
X123206838Y-144395317D01*
X123345910Y-144611441D01*
X123558110Y-144756431D01*
X123810000Y-144807440D01*
X125110000Y-144807440D01*
X125345317Y-144763162D01*
X125561441Y-144624090D01*
X125706431Y-144411890D01*
X125757440Y-144160000D01*
X125757440Y-142860000D01*
X129512560Y-142860000D01*
X129512560Y-144160000D01*
X129556838Y-144395317D01*
X129695910Y-144611441D01*
X129908110Y-144756431D01*
X130160000Y-144807440D01*
X131460000Y-144807440D01*
X131695317Y-144763162D01*
X131911441Y-144624090D01*
X132056431Y-144411890D01*
X132085381Y-144268930D01*
X132370839Y-144212148D01*
X132617401Y-144047401D01*
X133887401Y-142777401D01*
X134052148Y-142530840D01*
X134110000Y-142240000D01*
X134110000Y-141319039D01*
X169658096Y-141319039D01*
X169675633Y-141401819D01*
X169945500Y-141894896D01*
X170383517Y-142247166D01*
X170923000Y-142405000D01*
X171323000Y-142405000D01*
X171323000Y-141097000D01*
X171577000Y-141097000D01*
X171577000Y-142405000D01*
X171977000Y-142405000D01*
X172516483Y-142247166D01*
X172954500Y-141894896D01*
X173224367Y-141401819D01*
X173241904Y-141319039D01*
X173119915Y-141097000D01*
X171577000Y-141097000D01*
X171323000Y-141097000D01*
X169780085Y-141097000D01*
X169658096Y-141319039D01*
X134110000Y-141319039D01*
X134110000Y-119942463D01*
X134142192Y-119910327D01*
X134284838Y-119566799D01*
X134285162Y-119194833D01*
X134143117Y-118851057D01*
X133880327Y-118587808D01*
X133536799Y-118445162D01*
X133164833Y-118444838D01*
X132821057Y-118586883D01*
X132557808Y-118849673D01*
X132415162Y-119193201D01*
X132414838Y-119565167D01*
X132556883Y-119908943D01*
X132590000Y-119942118D01*
X132590000Y-141925198D01*
X131995564Y-142519634D01*
X131924090Y-142408559D01*
X131711890Y-142263569D01*
X131460000Y-142212560D01*
X131297615Y-142212560D01*
X131473729Y-142139611D01*
X131529410Y-141909016D01*
X130810000Y-141189605D01*
X130090590Y-141909016D01*
X130146271Y-142139611D01*
X130355902Y-142212560D01*
X130160000Y-142212560D01*
X129924683Y-142256838D01*
X129708559Y-142395910D01*
X129563569Y-142608110D01*
X129512560Y-142860000D01*
X125757440Y-142860000D01*
X125713162Y-142624683D01*
X125574090Y-142408559D01*
X125361890Y-142263569D01*
X125110000Y-142212560D01*
X124947615Y-142212560D01*
X125123729Y-142139611D01*
X125179410Y-141909016D01*
X124460000Y-141189605D01*
X123740590Y-141909016D01*
X123796271Y-142139611D01*
X124005902Y-142212560D01*
X123810000Y-142212560D01*
X123574683Y-142256838D01*
X123358559Y-142395910D01*
X123213569Y-142608110D01*
X123162560Y-142860000D01*
X120898148Y-142860000D01*
X120624415Y-142450330D01*
X120309634Y-142240000D01*
X120624415Y-142029670D01*
X120949271Y-141543489D01*
X121063345Y-140970000D01*
X121035314Y-140829078D01*
X123162378Y-140829078D01*
X123191917Y-141339428D01*
X123330389Y-141673729D01*
X123560984Y-141729410D01*
X124280395Y-141010000D01*
X124639605Y-141010000D01*
X125359016Y-141729410D01*
X125589611Y-141673729D01*
X125757622Y-141190922D01*
X125736679Y-140829078D01*
X129512378Y-140829078D01*
X129541917Y-141339428D01*
X129680389Y-141673729D01*
X129910984Y-141729410D01*
X130630395Y-141010000D01*
X130989605Y-141010000D01*
X131709016Y-141729410D01*
X131939611Y-141673729D01*
X132107622Y-141190922D01*
X132078083Y-140680572D01*
X131939611Y-140346271D01*
X131709016Y-140290590D01*
X130989605Y-141010000D01*
X130630395Y-141010000D01*
X129910984Y-140290590D01*
X129680389Y-140346271D01*
X129512378Y-140829078D01*
X125736679Y-140829078D01*
X125728083Y-140680572D01*
X125589611Y-140346271D01*
X125359016Y-140290590D01*
X124639605Y-141010000D01*
X124280395Y-141010000D01*
X123560984Y-140290590D01*
X123330389Y-140346271D01*
X123162378Y-140829078D01*
X121035314Y-140829078D01*
X120949271Y-140396511D01*
X120758488Y-140110984D01*
X123740590Y-140110984D01*
X124460000Y-140830395D01*
X125179410Y-140110984D01*
X130090590Y-140110984D01*
X130810000Y-140830395D01*
X131529410Y-140110984D01*
X131473729Y-139880389D01*
X130990922Y-139712378D01*
X130480572Y-139741917D01*
X130146271Y-139880389D01*
X130090590Y-140110984D01*
X125179410Y-140110984D01*
X125123729Y-139880389D01*
X124640922Y-139712378D01*
X124130572Y-139741917D01*
X123796271Y-139880389D01*
X123740590Y-140110984D01*
X120758488Y-140110984D01*
X120624415Y-139910330D01*
X120309634Y-139700000D01*
X120624415Y-139489670D01*
X120949271Y-139003489D01*
X121063345Y-138430000D01*
X120949271Y-137856511D01*
X120624415Y-137370330D01*
X120309634Y-137160000D01*
X120624415Y-136949670D01*
X120949271Y-136463489D01*
X121063345Y-135890000D01*
X120949271Y-135316511D01*
X120624415Y-134830330D01*
X120309634Y-134620000D01*
X120624415Y-134409670D01*
X120949271Y-133923489D01*
X121063345Y-133350000D01*
X120949271Y-132776511D01*
X120624415Y-132290330D01*
X120309634Y-132080000D01*
X120624415Y-131869670D01*
X120949271Y-131383489D01*
X121063345Y-130810000D01*
X120949271Y-130236511D01*
X120624415Y-129750330D01*
X120309634Y-129540000D01*
X120624415Y-129329670D01*
X120949271Y-128843489D01*
X121063345Y-128270000D01*
X120949271Y-127696511D01*
X120624415Y-127210330D01*
X120309634Y-127000000D01*
X120624415Y-126789670D01*
X120949271Y-126303489D01*
X121063345Y-125730000D01*
X120949271Y-125156511D01*
X120624415Y-124670330D01*
X120309634Y-124460000D01*
X120624415Y-124249670D01*
X120949271Y-123763489D01*
X121063345Y-123190000D01*
X120949271Y-122616511D01*
X120713463Y-122263599D01*
X126534699Y-122263599D01*
X126798281Y-122901515D01*
X127086338Y-123190075D01*
X126799996Y-123475918D01*
X126535301Y-124113373D01*
X126534699Y-124803599D01*
X126798281Y-125441515D01*
X127086338Y-125730075D01*
X126799996Y-126015918D01*
X126535301Y-126653373D01*
X126534699Y-127343599D01*
X126798281Y-127981515D01*
X127086338Y-128270075D01*
X126799996Y-128555918D01*
X126535301Y-129193373D01*
X126534699Y-129883599D01*
X126798281Y-130521515D01*
X127086338Y-130810075D01*
X126799996Y-131095918D01*
X126535301Y-131733373D01*
X126534699Y-132423599D01*
X126798281Y-133061515D01*
X127086338Y-133350075D01*
X126799996Y-133635918D01*
X126535301Y-134273373D01*
X126534699Y-134963599D01*
X126798281Y-135601515D01*
X127086338Y-135890075D01*
X126799996Y-136175918D01*
X126535301Y-136813373D01*
X126534699Y-137503599D01*
X126798281Y-138141515D01*
X127285918Y-138630004D01*
X127923373Y-138894699D01*
X128613599Y-138895301D01*
X129251515Y-138631719D01*
X129740004Y-138144082D01*
X130004699Y-137506627D01*
X130005301Y-136816401D01*
X129741719Y-136178485D01*
X129453662Y-135889925D01*
X129740004Y-135604082D01*
X130004699Y-134966627D01*
X130005301Y-134276401D01*
X129741719Y-133638485D01*
X129453662Y-133349925D01*
X129740004Y-133064082D01*
X130004699Y-132426627D01*
X130005301Y-131736401D01*
X129741719Y-131098485D01*
X129453662Y-130809925D01*
X129740004Y-130524082D01*
X130004699Y-129886627D01*
X130005301Y-129196401D01*
X129741719Y-128558485D01*
X129453662Y-128269925D01*
X129740004Y-127984082D01*
X130004699Y-127346627D01*
X130005301Y-126656401D01*
X129741719Y-126018485D01*
X129453662Y-125729925D01*
X129740004Y-125444082D01*
X130004699Y-124806627D01*
X130005301Y-124116401D01*
X129741719Y-123478485D01*
X129453662Y-123189925D01*
X129740004Y-122904082D01*
X130004699Y-122266627D01*
X130005301Y-121576401D01*
X129741719Y-120938485D01*
X129254082Y-120449996D01*
X129093861Y-120383466D01*
X128270000Y-119559605D01*
X127446695Y-120382910D01*
X127288485Y-120448281D01*
X126799996Y-120935918D01*
X126535301Y-121573373D01*
X126534699Y-122263599D01*
X120713463Y-122263599D01*
X120624415Y-122130330D01*
X120309634Y-121920000D01*
X120624415Y-121709670D01*
X120824648Y-121410000D01*
X121920000Y-121410000D01*
X122210839Y-121352148D01*
X122457401Y-121187401D01*
X124553209Y-119091593D01*
X126524677Y-119091593D01*
X126547164Y-119781453D01*
X126767901Y-120314359D01*
X127045132Y-120425263D01*
X128090395Y-119380000D01*
X128449605Y-119380000D01*
X129494868Y-120425263D01*
X129772099Y-120314359D01*
X130015323Y-119668407D01*
X129992836Y-118978547D01*
X129772099Y-118445641D01*
X129494868Y-118334737D01*
X128449605Y-119380000D01*
X128090395Y-119380000D01*
X127045132Y-118334737D01*
X126767901Y-118445641D01*
X126524677Y-119091593D01*
X124553209Y-119091593D01*
X124997401Y-118647401D01*
X125162148Y-118400840D01*
X125180216Y-118310004D01*
X125220000Y-118110000D01*
X125220000Y-117183599D01*
X126534699Y-117183599D01*
X126798281Y-117821515D01*
X127285918Y-118310004D01*
X127446139Y-118376534D01*
X128270000Y-119200395D01*
X129093305Y-118377090D01*
X129251515Y-118311719D01*
X129740004Y-117824082D01*
X130004699Y-117186627D01*
X130005301Y-116496401D01*
X129741719Y-115858485D01*
X129254082Y-115369996D01*
X128616627Y-115105301D01*
X127926401Y-115104699D01*
X127288485Y-115368281D01*
X126799996Y-115855918D01*
X126535301Y-116493373D01*
X126534699Y-117183599D01*
X125220000Y-117183599D01*
X125220000Y-115884802D01*
X127314802Y-113790000D01*
X130495198Y-113790000D01*
X137892599Y-121187401D01*
X138139160Y-121352148D01*
X138430000Y-121410000D01*
X143205889Y-121410000D01*
X142971808Y-121643673D01*
X142829162Y-121987201D01*
X142829121Y-122034077D01*
X141448599Y-123414599D01*
X141283852Y-123661161D01*
X141226000Y-123952000D01*
X141226000Y-133803537D01*
X141193808Y-133835673D01*
X141051162Y-134179201D01*
X141050838Y-134551167D01*
X141192883Y-134894943D01*
X141455673Y-135158192D01*
X141799201Y-135300838D01*
X142171167Y-135301162D01*
X142514943Y-135159117D01*
X142778192Y-134896327D01*
X142920838Y-134552799D01*
X142921162Y-134180833D01*
X142779117Y-133837057D01*
X142746000Y-133803882D01*
X142746000Y-124266802D01*
X143903680Y-123109122D01*
X143949167Y-123109162D01*
X144292943Y-122967117D01*
X144556192Y-122704327D01*
X144698838Y-122360799D01*
X144699162Y-121988833D01*
X144557117Y-121645057D01*
X144322470Y-121410000D01*
X145875352Y-121410000D01*
X146075585Y-121709670D01*
X146390366Y-121920000D01*
X146075585Y-122130330D01*
X145750729Y-122616511D01*
X145636655Y-123190000D01*
X145750729Y-123763489D01*
X146075585Y-124249670D01*
X146390366Y-124460000D01*
X146075585Y-124670330D01*
X145750729Y-125156511D01*
X145636655Y-125730000D01*
X145750729Y-126303489D01*
X146075585Y-126789670D01*
X146390366Y-127000000D01*
X146075585Y-127210330D01*
X145750729Y-127696511D01*
X145636655Y-128270000D01*
X145750729Y-128843489D01*
X146075585Y-129329670D01*
X146390366Y-129540000D01*
X146075585Y-129750330D01*
X145750729Y-130236511D01*
X145636655Y-130810000D01*
X145750729Y-131383489D01*
X146075585Y-131869670D01*
X146390366Y-132080000D01*
X146075585Y-132290330D01*
X145750729Y-132776511D01*
X145636655Y-133350000D01*
X145750729Y-133923489D01*
X146075585Y-134409670D01*
X146390366Y-134620000D01*
X146075585Y-134830330D01*
X145750729Y-135316511D01*
X145636655Y-135890000D01*
X145750729Y-136463489D01*
X146075585Y-136949670D01*
X146561766Y-137274526D01*
X147135255Y-137388600D01*
X147504745Y-137388600D01*
X148078234Y-137274526D01*
X148564415Y-136949670D01*
X148889271Y-136463489D01*
X149003345Y-135890000D01*
X148889271Y-135316511D01*
X148564415Y-134830330D01*
X148249634Y-134620000D01*
X148564415Y-134409670D01*
X148889271Y-133923489D01*
X149003345Y-133350000D01*
X148889271Y-132776511D01*
X148564415Y-132290330D01*
X148249634Y-132080000D01*
X148564415Y-131869670D01*
X148889271Y-131383489D01*
X149003345Y-130810000D01*
X148889271Y-130236511D01*
X148564415Y-129750330D01*
X148249634Y-129540000D01*
X148564415Y-129329670D01*
X148889271Y-128843489D01*
X149003345Y-128270000D01*
X148889271Y-127696511D01*
X148564415Y-127210330D01*
X148249634Y-127000000D01*
X148564415Y-126789670D01*
X148889271Y-126303489D01*
X149003345Y-125730000D01*
X148889271Y-125156511D01*
X148564415Y-124670330D01*
X148249634Y-124460000D01*
X148564415Y-124249670D01*
X148889271Y-123763489D01*
X149003345Y-123190000D01*
X148889271Y-122616511D01*
X148564415Y-122130330D01*
X148249634Y-121920000D01*
X148564415Y-121709670D01*
X148889271Y-121223489D01*
X149003345Y-120650000D01*
X148889271Y-120076511D01*
X148564415Y-119590330D01*
X148249634Y-119380000D01*
X148564415Y-119169670D01*
X148889271Y-118683489D01*
X149003345Y-118110000D01*
X148889271Y-117536511D01*
X148564415Y-117050330D01*
X148249634Y-116840000D01*
X148564415Y-116629670D01*
X148889271Y-116143489D01*
X149003345Y-115570000D01*
X148889271Y-114996511D01*
X148564415Y-114510330D01*
X148249634Y-114300000D01*
X148564415Y-114089670D01*
X148889271Y-113603489D01*
X149003345Y-113030000D01*
X148889271Y-112456511D01*
X148564415Y-111970330D01*
X148249634Y-111760000D01*
X148564415Y-111549670D01*
X148889271Y-111063489D01*
X149003345Y-110490000D01*
X148889271Y-109916511D01*
X148564415Y-109430330D01*
X148254931Y-109223539D01*
X148670732Y-108852036D01*
X148924709Y-108324791D01*
X148927358Y-108309026D01*
X148806217Y-108077000D01*
X147447000Y-108077000D01*
X147447000Y-108097000D01*
X147193000Y-108097000D01*
X147193000Y-108077000D01*
X145833783Y-108077000D01*
X145712642Y-108309026D01*
X145715291Y-108324791D01*
X145969268Y-108852036D01*
X146385069Y-109223539D01*
X146075585Y-109430330D01*
X145750729Y-109916511D01*
X145636655Y-110490000D01*
X145750729Y-111063489D01*
X146075585Y-111549670D01*
X146390366Y-111760000D01*
X146075585Y-111970330D01*
X145750729Y-112456511D01*
X145636655Y-113030000D01*
X145750729Y-113603489D01*
X146075585Y-114089670D01*
X146390366Y-114300000D01*
X146075585Y-114510330D01*
X145875352Y-114810000D01*
X139072463Y-114810000D01*
X139040327Y-114777808D01*
X138696799Y-114635162D01*
X138324833Y-114634838D01*
X137981057Y-114776883D01*
X137717808Y-115039673D01*
X137575162Y-115383201D01*
X137574838Y-115755167D01*
X137716883Y-116098943D01*
X137979673Y-116362192D01*
X138323201Y-116504838D01*
X138695167Y-116505162D01*
X139038943Y-116363117D01*
X139072118Y-116330000D01*
X145875352Y-116330000D01*
X146075585Y-116629670D01*
X146390366Y-116840000D01*
X146075585Y-117050330D01*
X145875352Y-117350000D01*
X138744802Y-117350000D01*
X131347401Y-109952599D01*
X131100839Y-109787852D01*
X130810000Y-109730000D01*
X127000000Y-109730000D01*
X126709161Y-109787852D01*
X126462599Y-109952599D01*
X122652599Y-113762599D01*
X122487852Y-114009161D01*
X122430000Y-114300000D01*
X122430000Y-116525198D01*
X121605198Y-117350000D01*
X120824648Y-117350000D01*
X120624415Y-117050330D01*
X120309634Y-116840000D01*
X120624415Y-116629670D01*
X120949271Y-116143489D01*
X121063345Y-115570000D01*
X120949271Y-114996511D01*
X120624415Y-114510330D01*
X120309634Y-114300000D01*
X120624415Y-114089670D01*
X120949271Y-113603489D01*
X121063345Y-113030000D01*
X120949271Y-112456511D01*
X120624415Y-111970330D01*
X120309634Y-111760000D01*
X120624415Y-111549670D01*
X120949271Y-111063489D01*
X121063345Y-110490000D01*
X120949271Y-109916511D01*
X120624415Y-109430330D01*
X120309634Y-109220000D01*
X120624415Y-109009670D01*
X120949271Y-108523489D01*
X121020682Y-108164481D01*
X124444777Y-108164481D01*
X124639995Y-108636943D01*
X125001155Y-108998735D01*
X125473276Y-109194777D01*
X125984481Y-109195223D01*
X126456943Y-109000005D01*
X126818735Y-108638845D01*
X127014777Y-108166724D01*
X127015223Y-107655519D01*
X126868326Y-107300000D01*
X130782560Y-107300000D01*
X130782560Y-108600000D01*
X130826838Y-108835317D01*
X130965910Y-109051441D01*
X131178110Y-109196431D01*
X131430000Y-109247440D01*
X132730000Y-109247440D01*
X132965317Y-109203162D01*
X133181441Y-109064090D01*
X133326431Y-108851890D01*
X133355164Y-108710000D01*
X134620000Y-108710000D01*
X134910839Y-108652148D01*
X135157401Y-108487401D01*
X140774802Y-102870000D01*
X145636655Y-102870000D01*
X145750729Y-103443489D01*
X146075585Y-103929670D01*
X146390366Y-104140000D01*
X146075585Y-104350330D01*
X145750729Y-104836511D01*
X145636655Y-105410000D01*
X145750729Y-105983489D01*
X146075585Y-106469670D01*
X146385069Y-106676461D01*
X145969268Y-107047964D01*
X145715291Y-107575209D01*
X145712642Y-107590974D01*
X145833783Y-107823000D01*
X147193000Y-107823000D01*
X147193000Y-107803000D01*
X147447000Y-107803000D01*
X147447000Y-107823000D01*
X148806217Y-107823000D01*
X148927358Y-107590974D01*
X148924709Y-107575209D01*
X148670732Y-107047964D01*
X148254931Y-106676461D01*
X148564415Y-106469670D01*
X148889271Y-105983489D01*
X149003345Y-105410000D01*
X160876655Y-105410000D01*
X160990729Y-105983489D01*
X161315585Y-106469670D01*
X161630366Y-106680000D01*
X161315585Y-106890330D01*
X160990729Y-107376511D01*
X160876655Y-107950000D01*
X160990729Y-108523489D01*
X161315585Y-109009670D01*
X161630366Y-109220000D01*
X161315585Y-109430330D01*
X160990729Y-109916511D01*
X160876655Y-110490000D01*
X160990729Y-111063489D01*
X161315585Y-111549670D01*
X161630366Y-111760000D01*
X161315585Y-111970330D01*
X160990729Y-112456511D01*
X160876655Y-113030000D01*
X160990729Y-113603489D01*
X161315585Y-114089670D01*
X161630366Y-114300000D01*
X161315585Y-114510330D01*
X160990729Y-114996511D01*
X160876655Y-115570000D01*
X160990729Y-116143489D01*
X161315585Y-116629670D01*
X161630366Y-116840000D01*
X161315585Y-117050330D01*
X160990729Y-117536511D01*
X160876655Y-118110000D01*
X160990729Y-118683489D01*
X161315585Y-119169670D01*
X161630366Y-119380000D01*
X161315585Y-119590330D01*
X160990729Y-120076511D01*
X160876655Y-120650000D01*
X160990729Y-121223489D01*
X161315585Y-121709670D01*
X161630366Y-121920000D01*
X161315585Y-122130330D01*
X160990729Y-122616511D01*
X160876655Y-123190000D01*
X160990729Y-123763489D01*
X161315585Y-124249670D01*
X161630366Y-124460000D01*
X161315585Y-124670330D01*
X160990729Y-125156511D01*
X160876655Y-125730000D01*
X160990729Y-126303489D01*
X161315585Y-126789670D01*
X161630366Y-127000000D01*
X161315585Y-127210330D01*
X160990729Y-127696511D01*
X160876655Y-128270000D01*
X160990729Y-128843489D01*
X161315585Y-129329670D01*
X161630366Y-129540000D01*
X161315585Y-129750330D01*
X160990729Y-130236511D01*
X160876655Y-130810000D01*
X160990729Y-131383489D01*
X161315585Y-131869670D01*
X161630366Y-132080000D01*
X161315585Y-132290330D01*
X160990729Y-132776511D01*
X160876655Y-133350000D01*
X160990729Y-133923489D01*
X161315585Y-134409670D01*
X161630366Y-134620000D01*
X161315585Y-134830330D01*
X160990729Y-135316511D01*
X160876655Y-135890000D01*
X160990729Y-136463489D01*
X161315585Y-136949670D01*
X161801766Y-137274526D01*
X162375255Y-137388600D01*
X162744745Y-137388600D01*
X163318234Y-137274526D01*
X163804415Y-136949670D01*
X164129271Y-136463489D01*
X164243345Y-135890000D01*
X164129271Y-135316511D01*
X163804415Y-134830330D01*
X163489634Y-134620000D01*
X163804415Y-134409670D01*
X164129271Y-133923489D01*
X164243345Y-133350000D01*
X164129271Y-132776511D01*
X163804415Y-132290330D01*
X163489634Y-132080000D01*
X163804415Y-131869670D01*
X164129271Y-131383489D01*
X164243345Y-130810000D01*
X164129271Y-130236511D01*
X163804415Y-129750330D01*
X163489634Y-129540000D01*
X163804415Y-129329670D01*
X164129271Y-128843489D01*
X164243345Y-128270000D01*
X164129271Y-127696511D01*
X163804415Y-127210330D01*
X163489634Y-127000000D01*
X163804415Y-126789670D01*
X164129271Y-126303489D01*
X164243345Y-125730000D01*
X169579050Y-125730000D01*
X169688283Y-126279151D01*
X169999352Y-126744698D01*
X170381438Y-127000000D01*
X169999352Y-127255302D01*
X169688283Y-127720849D01*
X169579050Y-128270000D01*
X169688283Y-128819151D01*
X169999352Y-129284698D01*
X170381438Y-129540000D01*
X169999352Y-129795302D01*
X169688283Y-130260849D01*
X169579050Y-130810000D01*
X169688283Y-131359151D01*
X169999352Y-131824698D01*
X170381438Y-132080000D01*
X169999352Y-132335302D01*
X169688283Y-132800849D01*
X169579050Y-133350000D01*
X169688283Y-133899151D01*
X169999352Y-134364698D01*
X170381438Y-134620000D01*
X169999352Y-134875302D01*
X169688283Y-135340849D01*
X169579050Y-135890000D01*
X169688283Y-136439151D01*
X169999352Y-136904698D01*
X170381438Y-137160000D01*
X169999352Y-137415302D01*
X169688283Y-137880849D01*
X169579050Y-138430000D01*
X169688283Y-138979151D01*
X169999352Y-139444698D01*
X170377707Y-139697507D01*
X169945500Y-140045104D01*
X169675633Y-140538181D01*
X169658096Y-140620961D01*
X169780085Y-140843000D01*
X171323000Y-140843000D01*
X171323000Y-140823000D01*
X171577000Y-140823000D01*
X171577000Y-140843000D01*
X173119915Y-140843000D01*
X173241904Y-140620961D01*
X173224367Y-140538181D01*
X172954500Y-140045104D01*
X172522293Y-139697507D01*
X172900648Y-139444698D01*
X173211717Y-138979151D01*
X173320950Y-138430000D01*
X173211717Y-137880849D01*
X172900648Y-137415302D01*
X172518562Y-137160000D01*
X172900648Y-136904698D01*
X173211717Y-136439151D01*
X173320950Y-135890000D01*
X173211717Y-135340849D01*
X172900648Y-134875302D01*
X172518562Y-134620000D01*
X172900648Y-134364698D01*
X173211717Y-133899151D01*
X173320950Y-133350000D01*
X173211717Y-132800849D01*
X172900648Y-132335302D01*
X172518562Y-132080000D01*
X172900648Y-131824698D01*
X173211717Y-131359151D01*
X173320950Y-130810000D01*
X173211717Y-130260849D01*
X172900648Y-129795302D01*
X172518562Y-129540000D01*
X172900648Y-129284698D01*
X173211717Y-128819151D01*
X173320950Y-128270000D01*
X173211717Y-127720849D01*
X172900648Y-127255302D01*
X172518562Y-127000000D01*
X172900648Y-126744698D01*
X173211717Y-126279151D01*
X173320950Y-125730000D01*
X173211717Y-125180849D01*
X172900648Y-124715302D01*
X172754650Y-124617749D01*
X172885317Y-124593162D01*
X173101441Y-124454090D01*
X173246431Y-124241890D01*
X173297440Y-123990000D01*
X173297440Y-122390000D01*
X173253162Y-122154683D01*
X173114090Y-121938559D01*
X172901890Y-121793569D01*
X172650000Y-121742560D01*
X170250000Y-121742560D01*
X170014683Y-121786838D01*
X169798559Y-121925910D01*
X169653569Y-122138110D01*
X169602560Y-122390000D01*
X169602560Y-123990000D01*
X169646838Y-124225317D01*
X169785910Y-124441441D01*
X169998110Y-124586431D01*
X170147074Y-124616597D01*
X169999352Y-124715302D01*
X169688283Y-125180849D01*
X169579050Y-125730000D01*
X164243345Y-125730000D01*
X164129271Y-125156511D01*
X163804415Y-124670330D01*
X163489634Y-124460000D01*
X163804415Y-124249670D01*
X164129271Y-123763489D01*
X164243345Y-123190000D01*
X164129271Y-122616511D01*
X163804415Y-122130330D01*
X163489634Y-121920000D01*
X163804415Y-121709670D01*
X164129271Y-121223489D01*
X164243345Y-120650000D01*
X164129271Y-120076511D01*
X163804415Y-119590330D01*
X163489634Y-119380000D01*
X163804415Y-119169670D01*
X164129271Y-118683489D01*
X164243345Y-118110000D01*
X164129271Y-117536511D01*
X163804415Y-117050330D01*
X163489634Y-116840000D01*
X163804415Y-116629670D01*
X164129271Y-116143489D01*
X164243345Y-115570000D01*
X164129271Y-114996511D01*
X163804415Y-114510330D01*
X163489634Y-114300000D01*
X163804415Y-114089670D01*
X164129271Y-113603489D01*
X164243345Y-113030000D01*
X164129271Y-112456511D01*
X163804415Y-111970330D01*
X163489634Y-111760000D01*
X163804415Y-111549670D01*
X164129271Y-111063489D01*
X164243345Y-110490000D01*
X164129271Y-109916511D01*
X163804415Y-109430330D01*
X163489634Y-109220000D01*
X163804415Y-109009670D01*
X164129271Y-108523489D01*
X164243345Y-107950000D01*
X164129271Y-107376511D01*
X163804415Y-106890330D01*
X163489634Y-106680000D01*
X163804415Y-106469670D01*
X164129271Y-105983489D01*
X164243345Y-105410000D01*
X164129271Y-104836511D01*
X163804415Y-104350330D01*
X163494931Y-104143539D01*
X163910732Y-103772036D01*
X164164709Y-103244791D01*
X164167358Y-103229026D01*
X164046217Y-102997000D01*
X162687000Y-102997000D01*
X162687000Y-103017000D01*
X162433000Y-103017000D01*
X162433000Y-102997000D01*
X161073783Y-102997000D01*
X160952642Y-103229026D01*
X160955291Y-103244791D01*
X161209268Y-103772036D01*
X161625069Y-104143539D01*
X161315585Y-104350330D01*
X160990729Y-104836511D01*
X160876655Y-105410000D01*
X149003345Y-105410000D01*
X148889271Y-104836511D01*
X148564415Y-104350330D01*
X148249634Y-104140000D01*
X148564415Y-103929670D01*
X148889271Y-103443489D01*
X149003345Y-102870000D01*
X148889271Y-102296511D01*
X148564415Y-101810330D01*
X148550087Y-101800757D01*
X148571317Y-101796762D01*
X148787441Y-101657690D01*
X148932431Y-101445490D01*
X148983440Y-101193600D01*
X148983440Y-99466400D01*
X160896560Y-99466400D01*
X160896560Y-101193600D01*
X160940838Y-101428917D01*
X161079910Y-101645041D01*
X161292110Y-101790031D01*
X161386927Y-101809232D01*
X161209268Y-101967964D01*
X160955291Y-102495209D01*
X160952642Y-102510974D01*
X161073783Y-102743000D01*
X162433000Y-102743000D01*
X162433000Y-102723000D01*
X162687000Y-102723000D01*
X162687000Y-102743000D01*
X164046217Y-102743000D01*
X164167358Y-102510974D01*
X164164709Y-102495209D01*
X163910732Y-101967964D01*
X163735155Y-101811093D01*
X163811317Y-101796762D01*
X164027441Y-101657690D01*
X164172431Y-101445490D01*
X164223440Y-101193600D01*
X164223440Y-99466400D01*
X164179162Y-99231083D01*
X164040090Y-99014959D01*
X163827890Y-98869969D01*
X163576000Y-98818960D01*
X161544000Y-98818960D01*
X161308683Y-98863238D01*
X161092559Y-99002310D01*
X160947569Y-99214510D01*
X160896560Y-99466400D01*
X148983440Y-99466400D01*
X148939162Y-99231083D01*
X148800090Y-99014959D01*
X148587890Y-98869969D01*
X148336000Y-98818960D01*
X146304000Y-98818960D01*
X146068683Y-98863238D01*
X145852559Y-99002310D01*
X145707569Y-99214510D01*
X145656560Y-99466400D01*
X145656560Y-101193600D01*
X145700838Y-101428917D01*
X145839910Y-101645041D01*
X146052110Y-101790031D01*
X146093439Y-101798400D01*
X146075585Y-101810330D01*
X145750729Y-102296511D01*
X145636655Y-102870000D01*
X140774802Y-102870000D01*
X146364802Y-97280000D01*
X163515198Y-97280000D01*
X174500000Y-108264802D01*
X174500000Y-137160000D01*
X174557852Y-137450839D01*
X174722599Y-137697401D01*
X177363464Y-140338266D01*
X177308283Y-140420849D01*
X177199050Y-140970000D01*
X177308283Y-141519151D01*
X177619352Y-141984698D01*
X178084899Y-142295767D01*
X178634050Y-142405000D01*
X179505950Y-142405000D01*
X180055101Y-142295767D01*
X180520648Y-141984698D01*
X180809054Y-141553069D01*
X180877401Y-141507401D01*
X187613031Y-134771771D01*
X187930907Y-134835000D01*
X187989093Y-134835000D01*
X188557378Y-134721961D01*
X189039147Y-134400054D01*
X189361054Y-133918285D01*
X189474093Y-133350000D01*
X189361054Y-132781715D01*
X189039147Y-132299946D01*
X188709974Y-132080000D01*
X189039147Y-131860054D01*
X189361054Y-131378285D01*
X189474093Y-130810000D01*
X189361054Y-130241715D01*
X189039147Y-129759946D01*
X188709974Y-129540000D01*
X189039147Y-129320054D01*
X189361054Y-128838285D01*
X189474093Y-128270000D01*
X189361054Y-127701715D01*
X189039147Y-127219946D01*
X188709974Y-127000000D01*
X189039147Y-126780054D01*
X189361054Y-126298285D01*
X189474093Y-125730000D01*
X189361054Y-125161715D01*
X189039147Y-124679946D01*
X188997548Y-124652150D01*
X189045317Y-124643162D01*
X189261441Y-124504090D01*
X189406431Y-124291890D01*
X189457440Y-124040000D01*
X189457440Y-122340000D01*
X189413162Y-122104683D01*
X189274090Y-121888559D01*
X189061890Y-121743569D01*
X188810000Y-121692560D01*
X187110000Y-121692560D01*
X186874683Y-121736838D01*
X186658559Y-121875910D01*
X186513569Y-122088110D01*
X186462560Y-122340000D01*
X186462560Y-124040000D01*
X186506838Y-124275317D01*
X186645910Y-124491441D01*
X186858110Y-124636431D01*
X186925541Y-124650086D01*
X186880853Y-124679946D01*
X186558946Y-125161715D01*
X186445907Y-125730000D01*
X186558946Y-126298285D01*
X186880853Y-126780054D01*
X187210026Y-127000000D01*
X186880853Y-127219946D01*
X186558946Y-127701715D01*
X186445907Y-128270000D01*
X186558946Y-128838285D01*
X186880853Y-129320054D01*
X187210026Y-129540000D01*
X186880853Y-129759946D01*
X186558946Y-130241715D01*
X186445907Y-130810000D01*
X186558946Y-131378285D01*
X186880853Y-131860054D01*
X187210026Y-132080000D01*
X186880853Y-132299946D01*
X186558946Y-132781715D01*
X186445907Y-133350000D01*
X186518790Y-133716408D01*
X180376328Y-139858870D01*
X180138562Y-139700000D01*
X180520648Y-139444698D01*
X180831717Y-138979151D01*
X180940950Y-138430000D01*
X180831717Y-137880849D01*
X180520648Y-137415302D01*
X180138562Y-137160000D01*
X180520648Y-136904698D01*
X180831717Y-136439151D01*
X180940950Y-135890000D01*
X180831717Y-135340849D01*
X180520648Y-134875302D01*
X180138562Y-134620000D01*
X180520648Y-134364698D01*
X180831717Y-133899151D01*
X180940950Y-133350000D01*
X180831717Y-132800849D01*
X180520648Y-132335302D01*
X180138562Y-132080000D01*
X180520648Y-131824698D01*
X180831717Y-131359151D01*
X180940950Y-130810000D01*
X180831717Y-130260849D01*
X180520648Y-129795302D01*
X180138562Y-129540000D01*
X180520648Y-129284698D01*
X180831717Y-128819151D01*
X180940950Y-128270000D01*
X180831717Y-127720849D01*
X180520648Y-127255302D01*
X180138562Y-127000000D01*
X180520648Y-126744698D01*
X180831717Y-126279151D01*
X180940950Y-125730000D01*
X180831717Y-125180849D01*
X180520648Y-124715302D01*
X180138562Y-124460000D01*
X180520648Y-124204698D01*
X180831717Y-123739151D01*
X180940950Y-123190000D01*
X180831717Y-122640849D01*
X180520648Y-122175302D01*
X180055101Y-121864233D01*
X179505950Y-121755000D01*
X178634050Y-121755000D01*
X178084899Y-121864233D01*
X177619352Y-122175302D01*
X177308283Y-122640849D01*
X177199050Y-123190000D01*
X177308283Y-123739151D01*
X177619352Y-124204698D01*
X178001438Y-124460000D01*
X177619352Y-124715302D01*
X177308283Y-125180849D01*
X177199050Y-125730000D01*
X177308283Y-126279151D01*
X177619352Y-126744698D01*
X178001438Y-127000000D01*
X177619352Y-127255302D01*
X177308283Y-127720849D01*
X177199050Y-128270000D01*
X177308283Y-128819151D01*
X177619352Y-129284698D01*
X178001438Y-129540000D01*
X177619352Y-129795302D01*
X177308283Y-130260849D01*
X177199050Y-130810000D01*
X177308283Y-131359151D01*
X177619352Y-131824698D01*
X178001438Y-132080000D01*
X177619352Y-132335302D01*
X177308283Y-132800849D01*
X177199050Y-133350000D01*
X177308283Y-133899151D01*
X177619352Y-134364698D01*
X178001438Y-134620000D01*
X177619352Y-134875302D01*
X177308283Y-135340849D01*
X177199050Y-135890000D01*
X177308283Y-136439151D01*
X177619352Y-136904698D01*
X178001438Y-137160000D01*
X177619352Y-137415302D01*
X177308283Y-137880849D01*
X177266369Y-138091567D01*
X176020000Y-136845198D01*
X176020000Y-107950000D01*
X175962148Y-107659161D01*
X175797401Y-107412599D01*
X164367401Y-95982599D01*
X164120839Y-95817852D01*
X163830000Y-95760000D01*
X146050000Y-95760000D01*
X145759161Y-95817852D01*
X145512599Y-95982599D01*
X134305198Y-107190000D01*
X133356742Y-107190000D01*
X133333162Y-107064683D01*
X133194090Y-106848559D01*
X132981890Y-106703569D01*
X132730000Y-106652560D01*
X132567615Y-106652560D01*
X132743729Y-106579611D01*
X132799410Y-106349016D01*
X132080000Y-105629605D01*
X131360590Y-106349016D01*
X131416271Y-106579611D01*
X131625902Y-106652560D01*
X131430000Y-106652560D01*
X131194683Y-106696838D01*
X130978559Y-106835910D01*
X130833569Y-107048110D01*
X130782560Y-107300000D01*
X126868326Y-107300000D01*
X126820005Y-107183057D01*
X126458845Y-106821265D01*
X126154765Y-106695000D01*
X126506310Y-106695000D01*
X126739699Y-106598327D01*
X126918327Y-106419698D01*
X127015000Y-106186309D01*
X127015000Y-105695750D01*
X126856250Y-105537000D01*
X125857000Y-105537000D01*
X125857000Y-105557000D01*
X125603000Y-105557000D01*
X125603000Y-105537000D01*
X124603750Y-105537000D01*
X124445000Y-105695750D01*
X124445000Y-106186309D01*
X124541673Y-106419698D01*
X124720301Y-106598327D01*
X124953690Y-106695000D01*
X125305567Y-106695000D01*
X125003057Y-106819995D01*
X124641265Y-107181155D01*
X124445223Y-107653276D01*
X124444777Y-108164481D01*
X121020682Y-108164481D01*
X121063345Y-107950000D01*
X120949271Y-107376511D01*
X120624415Y-106890330D01*
X120309634Y-106680000D01*
X120624415Y-106469670D01*
X120949271Y-105983489D01*
X121063345Y-105410000D01*
X120949271Y-104836511D01*
X120813751Y-104633691D01*
X124445000Y-104633691D01*
X124445000Y-105124250D01*
X124603750Y-105283000D01*
X125603000Y-105283000D01*
X125603000Y-104283750D01*
X125857000Y-104283750D01*
X125857000Y-105283000D01*
X126856250Y-105283000D01*
X126870172Y-105269078D01*
X130782378Y-105269078D01*
X130811917Y-105779428D01*
X130950389Y-106113729D01*
X131180984Y-106169410D01*
X131900395Y-105450000D01*
X132259605Y-105450000D01*
X132979016Y-106169410D01*
X133209611Y-106113729D01*
X133377622Y-105630922D01*
X133348083Y-105120572D01*
X133209611Y-104786271D01*
X132979016Y-104730590D01*
X132259605Y-105450000D01*
X131900395Y-105450000D01*
X131180984Y-104730590D01*
X130950389Y-104786271D01*
X130782378Y-105269078D01*
X126870172Y-105269078D01*
X127015000Y-105124250D01*
X127015000Y-104633691D01*
X126980742Y-104550984D01*
X131360590Y-104550984D01*
X132080000Y-105270395D01*
X132799410Y-104550984D01*
X132743729Y-104320389D01*
X132260922Y-104152378D01*
X131750572Y-104181917D01*
X131416271Y-104320389D01*
X131360590Y-104550984D01*
X126980742Y-104550984D01*
X126918327Y-104400302D01*
X126739699Y-104221673D01*
X126506310Y-104125000D01*
X126015750Y-104125000D01*
X125857000Y-104283750D01*
X125603000Y-104283750D01*
X125444250Y-104125000D01*
X124953690Y-104125000D01*
X124720301Y-104221673D01*
X124541673Y-104400302D01*
X124445000Y-104633691D01*
X120813751Y-104633691D01*
X120624415Y-104350330D01*
X120309634Y-104140000D01*
X120624415Y-103929670D01*
X120949271Y-103443489D01*
X121063345Y-102870000D01*
X120949271Y-102296511D01*
X120624415Y-101810330D01*
X120309634Y-101600000D01*
X120624415Y-101389670D01*
X120949271Y-100903489D01*
X121020682Y-100544481D01*
X124444777Y-100544481D01*
X124639995Y-101016943D01*
X125001155Y-101378735D01*
X125473276Y-101574777D01*
X125984481Y-101575223D01*
X126456943Y-101380005D01*
X126818735Y-101018845D01*
X127014777Y-100546724D01*
X127015223Y-100035519D01*
X126868326Y-99680000D01*
X130782560Y-99680000D01*
X130782560Y-100980000D01*
X130826838Y-101215317D01*
X130965910Y-101431441D01*
X131178110Y-101576431D01*
X131430000Y-101627440D01*
X132730000Y-101627440D01*
X132965317Y-101583162D01*
X133181441Y-101444090D01*
X133326431Y-101231890D01*
X133377440Y-100980000D01*
X133377440Y-99680000D01*
X133333162Y-99444683D01*
X133194090Y-99228559D01*
X132981890Y-99083569D01*
X132730000Y-99032560D01*
X132567615Y-99032560D01*
X132743729Y-98959611D01*
X132799410Y-98729016D01*
X132080000Y-98009605D01*
X131360590Y-98729016D01*
X131416271Y-98959611D01*
X131625902Y-99032560D01*
X131430000Y-99032560D01*
X131194683Y-99076838D01*
X130978559Y-99215910D01*
X130833569Y-99428110D01*
X130782560Y-99680000D01*
X126868326Y-99680000D01*
X126820005Y-99563057D01*
X126458845Y-99201265D01*
X126154765Y-99075000D01*
X126506310Y-99075000D01*
X126739699Y-98978327D01*
X126918327Y-98799698D01*
X127015000Y-98566309D01*
X127015000Y-98075750D01*
X126856250Y-97917000D01*
X125857000Y-97917000D01*
X125857000Y-97937000D01*
X125603000Y-97937000D01*
X125603000Y-97917000D01*
X124603750Y-97917000D01*
X124445000Y-98075750D01*
X124445000Y-98566309D01*
X124541673Y-98799698D01*
X124720301Y-98978327D01*
X124953690Y-99075000D01*
X125305567Y-99075000D01*
X125003057Y-99199995D01*
X124641265Y-99561155D01*
X124445223Y-100033276D01*
X124444777Y-100544481D01*
X121020682Y-100544481D01*
X121063345Y-100330000D01*
X120949271Y-99756511D01*
X120624415Y-99270330D01*
X120602220Y-99255500D01*
X120755699Y-99191927D01*
X120934327Y-99013298D01*
X121031000Y-98779909D01*
X121031000Y-98075750D01*
X120872250Y-97917000D01*
X119507000Y-97917000D01*
X119507000Y-97937000D01*
X119253000Y-97937000D01*
X119253000Y-97917000D01*
X117887750Y-97917000D01*
X117729000Y-98075750D01*
X117729000Y-98779909D01*
X117825673Y-99013298D01*
X118004301Y-99191927D01*
X118157780Y-99255500D01*
X118135585Y-99270330D01*
X117810729Y-99756511D01*
X117696655Y-100330000D01*
X117525000Y-100330000D01*
X117525000Y-96800091D01*
X117729000Y-96800091D01*
X117729000Y-97504250D01*
X117887750Y-97663000D01*
X119253000Y-97663000D01*
X119253000Y-96450150D01*
X119507000Y-96450150D01*
X119507000Y-97663000D01*
X120872250Y-97663000D01*
X121031000Y-97504250D01*
X121031000Y-97013691D01*
X124445000Y-97013691D01*
X124445000Y-97504250D01*
X124603750Y-97663000D01*
X125603000Y-97663000D01*
X125603000Y-96663750D01*
X125857000Y-96663750D01*
X125857000Y-97663000D01*
X126856250Y-97663000D01*
X126870172Y-97649078D01*
X130782378Y-97649078D01*
X130811917Y-98159428D01*
X130950389Y-98493729D01*
X131180984Y-98549410D01*
X131900395Y-97830000D01*
X132259605Y-97830000D01*
X132979016Y-98549410D01*
X133209611Y-98493729D01*
X133377622Y-98010922D01*
X133348083Y-97500572D01*
X133209611Y-97166271D01*
X132979016Y-97110590D01*
X132259605Y-97830000D01*
X131900395Y-97830000D01*
X131180984Y-97110590D01*
X130950389Y-97166271D01*
X130782378Y-97649078D01*
X126870172Y-97649078D01*
X127015000Y-97504250D01*
X127015000Y-97013691D01*
X126980742Y-96930984D01*
X131360590Y-96930984D01*
X132080000Y-97650395D01*
X132799410Y-96930984D01*
X132743729Y-96700389D01*
X132260922Y-96532378D01*
X131750572Y-96561917D01*
X131416271Y-96700389D01*
X131360590Y-96930984D01*
X126980742Y-96930984D01*
X126918327Y-96780302D01*
X126739699Y-96601673D01*
X126506310Y-96505000D01*
X126015750Y-96505000D01*
X125857000Y-96663750D01*
X125603000Y-96663750D01*
X125444250Y-96505000D01*
X124953690Y-96505000D01*
X124720301Y-96601673D01*
X124541673Y-96780302D01*
X124445000Y-97013691D01*
X121031000Y-97013691D01*
X121031000Y-96800091D01*
X120934327Y-96566702D01*
X120755699Y-96388073D01*
X120522310Y-96291400D01*
X119665750Y-96291400D01*
X119507000Y-96450150D01*
X119253000Y-96450150D01*
X119094250Y-96291400D01*
X118237690Y-96291400D01*
X118004301Y-96388073D01*
X117825673Y-96566702D01*
X117729000Y-96800091D01*
X117525000Y-96800091D01*
X117525000Y-94665000D01*
X191085000Y-94665000D01*
X191085000Y-145365000D01*
G36*
X137892599Y-118647401D02*
X138139160Y-118812148D01*
X138430000Y-118870000D01*
X145875352Y-118870000D01*
X146075585Y-119169670D01*
X146390366Y-119380000D01*
X146075585Y-119590330D01*
X145875352Y-119890000D01*
X138744802Y-119890000D01*
X131347401Y-112492599D01*
X131100839Y-112327852D01*
X130810000Y-112270000D01*
X127000000Y-112270000D01*
X126757414Y-112318254D01*
X126709160Y-112327852D01*
X126462599Y-112492599D01*
X123950000Y-115005198D01*
X123950000Y-114614802D01*
X127314802Y-111250000D01*
X130495198Y-111250000D01*
X137892599Y-118647401D01*
X137892599Y-118647401D01*
G37*
X137892599Y-118647401D02*
X138139160Y-118812148D01*
X138430000Y-118870000D01*
X145875352Y-118870000D01*
X146075585Y-119169670D01*
X146390366Y-119380000D01*
X146075585Y-119590330D01*
X145875352Y-119890000D01*
X138744802Y-119890000D01*
X131347401Y-112492599D01*
X131100839Y-112327852D01*
X130810000Y-112270000D01*
X127000000Y-112270000D01*
X126757414Y-112318254D01*
X126709160Y-112327852D01*
X126462599Y-112492599D01*
X123950000Y-115005198D01*
X123950000Y-114614802D01*
X127314802Y-111250000D01*
X130495198Y-111250000D01*
X137892599Y-118647401D01*
M02*
